<svg width="1440" height="737" viewBox="0 0 1440 737" fill="none" xmlns="http://www.w3.org/2000/svg">
<g filter="url(#filter0_d_1_12138)">
<rect x="100" y="90" width="400" height="40" rx="8" fill="#00040F" shape-rendering="crispEdges"/>
<rect x="100.8" y="90.8" width="398.4" height="38.4" rx="7.2" stroke="url(#paint0_linear_1_12138)" stroke-width="1.6" shape-rendering="crispEdges"/>
<path d="M146.048 104.8C147.499 104.8 148.64 105.147 149.472 105.84C150.304 106.533 150.72 107.488 150.72 108.704C150.72 109.92 150.304 110.875 149.472 111.568C148.64 112.261 147.499 112.608 146.048 112.608H143.28V116H141.68V104.8H146.048ZM146 111.216C147.013 111.216 147.787 111.003 148.32 110.576C148.853 110.139 149.12 109.515 149.12 108.704C149.12 107.893 148.853 107.275 148.32 106.848C147.787 106.411 147.013 106.192 146 106.192H143.28V111.216H146ZM154.178 108.944C154.445 108.453 154.839 108.08 155.362 107.824C155.885 107.568 156.519 107.44 157.266 107.44V108.928C157.181 108.917 157.063 108.912 156.914 108.912C156.082 108.912 155.426 109.163 154.946 109.664C154.477 110.155 154.242 110.859 154.242 111.776V116H152.706V107.52H154.178V108.944ZM162.713 116.096C161.87 116.096 161.113 115.909 160.441 115.536C159.769 115.163 159.241 114.651 158.857 114C158.484 113.339 158.297 112.592 158.297 111.76C158.297 110.928 158.484 110.187 158.857 109.536C159.241 108.875 159.769 108.363 160.441 108C161.113 107.627 161.87 107.44 162.713 107.44C163.556 107.44 164.308 107.627 164.969 108C165.641 108.363 166.164 108.875 166.537 109.536C166.921 110.187 167.113 110.928 167.113 111.76C167.113 112.592 166.921 113.339 166.537 114C166.164 114.651 165.641 115.163 164.969 115.536C164.308 115.909 163.556 116.096 162.713 116.096ZM162.713 114.752C163.257 114.752 163.742 114.629 164.169 114.384C164.606 114.128 164.948 113.776 165.193 113.328C165.438 112.869 165.561 112.347 165.561 111.76C165.561 111.173 165.438 110.656 165.193 110.208C164.948 109.749 164.606 109.397 164.169 109.152C163.742 108.907 163.257 108.784 162.713 108.784C162.169 108.784 161.678 108.907 161.241 109.152C160.814 109.397 160.473 109.749 160.217 110.208C159.972 110.656 159.849 111.173 159.849 111.76C159.849 112.347 159.972 112.869 160.217 113.328C160.473 113.776 160.814 114.128 161.241 114.384C161.678 114.629 162.169 114.752 162.713 114.752ZM174.005 115.504C173.781 115.696 173.504 115.845 173.173 115.952C172.843 116.048 172.501 116.096 172.149 116.096C171.296 116.096 170.635 115.867 170.165 115.408C169.696 114.949 169.461 114.293 169.461 113.44V108.784H168.021V107.52H169.461V105.664H170.997V107.52H173.429V108.784H170.997V113.376C170.997 113.835 171.109 114.187 171.333 114.432C171.568 114.677 171.899 114.8 172.325 114.8C172.795 114.8 173.195 114.667 173.525 114.4L174.005 115.504ZM183.245 111.808C183.245 111.925 183.234 112.08 183.213 112.272H176.333C176.429 113.019 176.754 113.621 177.309 114.08C177.874 114.528 178.573 114.752 179.405 114.752C180.418 114.752 181.234 114.411 181.853 113.728L182.701 114.72C182.317 115.168 181.837 115.509 181.261 115.744C180.696 115.979 180.061 116.096 179.357 116.096C178.461 116.096 177.666 115.915 176.973 115.552C176.28 115.179 175.741 114.661 175.357 114C174.984 113.339 174.797 112.592 174.797 111.76C174.797 110.939 174.978 110.197 175.341 109.536C175.714 108.875 176.221 108.363 176.861 108C177.512 107.627 178.242 107.44 179.053 107.44C179.864 107.44 180.584 107.627 181.213 108C181.853 108.363 182.349 108.875 182.701 109.536C183.064 110.197 183.245 110.955 183.245 111.808ZM179.053 108.736C178.317 108.736 177.698 108.96 177.197 109.408C176.706 109.856 176.418 110.443 176.333 111.168H181.773C181.688 110.453 181.394 109.872 180.893 109.424C180.402 108.965 179.789 108.736 179.053 108.736ZM189.074 116.096C188.21 116.096 187.437 115.909 186.754 115.536C186.082 115.163 185.554 114.651 185.17 114C184.786 113.339 184.594 112.592 184.594 111.76C184.594 110.928 184.786 110.187 185.17 109.536C185.554 108.875 186.082 108.363 186.754 108C187.437 107.627 188.21 107.44 189.074 107.44C189.842 107.44 190.525 107.595 191.122 107.904C191.73 108.213 192.199 108.661 192.53 109.248L191.362 110C191.095 109.595 190.765 109.291 190.37 109.088C189.975 108.885 189.538 108.784 189.058 108.784C188.503 108.784 188.002 108.907 187.554 109.152C187.117 109.397 186.77 109.749 186.514 110.208C186.269 110.656 186.146 111.173 186.146 111.76C186.146 112.357 186.269 112.885 186.514 113.344C186.77 113.792 187.117 114.139 187.554 114.384C188.002 114.629 188.503 114.752 189.058 114.752C189.538 114.752 189.975 114.651 190.37 114.448C190.765 114.245 191.095 113.941 191.362 113.536L192.53 114.272C192.199 114.859 191.73 115.312 191.122 115.632C190.525 115.941 189.842 116.096 189.074 116.096ZM199.396 115.504C199.172 115.696 198.895 115.845 198.564 115.952C198.233 116.048 197.892 116.096 197.54 116.096C196.687 116.096 196.025 115.867 195.556 115.408C195.087 114.949 194.852 114.293 194.852 113.44V108.784H193.412V107.52H194.852V105.664H196.388V107.52H198.82V108.784H196.388V113.376C196.388 113.835 196.5 114.187 196.724 114.432C196.959 114.677 197.289 114.8 197.716 114.8C198.185 114.8 198.585 114.667 198.916 114.4L199.396 115.504ZM201.253 107.52H202.789V116H201.253V107.52ZM202.021 105.888C201.722 105.888 201.472 105.792 201.269 105.6C201.077 105.408 200.981 105.173 200.981 104.896C200.981 104.619 201.077 104.384 201.269 104.192C201.472 103.989 201.722 103.888 202.021 103.888C202.32 103.888 202.565 103.984 202.757 104.176C202.96 104.357 203.061 104.587 203.061 104.864C203.061 105.152 202.96 105.397 202.757 105.6C202.565 105.792 202.32 105.888 202.021 105.888ZM210.25 107.44C211.327 107.44 212.18 107.755 212.81 108.384C213.45 109.003 213.77 109.915 213.77 111.12V116H212.234V111.296C212.234 110.475 212.036 109.856 211.642 109.44C211.247 109.024 210.682 108.816 209.946 108.816C209.114 108.816 208.458 109.061 207.978 109.552C207.498 110.032 207.258 110.725 207.258 111.632V116H205.722V107.52H207.194V108.8C207.503 108.363 207.919 108.027 208.442 107.792C208.975 107.557 209.578 107.44 210.25 107.44ZM224.771 107.52V114.848C224.771 116.331 224.403 117.424 223.667 118.128C222.931 118.843 221.832 119.2 220.371 119.2C219.571 119.2 218.808 119.088 218.083 118.864C217.358 118.651 216.771 118.341 216.323 117.936L217.059 116.752C217.454 117.093 217.939 117.36 218.515 117.552C219.102 117.755 219.704 117.856 220.323 117.856C221.315 117.856 222.046 117.621 222.515 117.152C222.995 116.683 223.235 115.968 223.235 115.008V114.336C222.872 114.773 222.424 115.104 221.891 115.328C221.368 115.541 220.798 115.648 220.179 115.648C219.368 115.648 218.632 115.477 217.971 115.136C217.32 114.784 216.808 114.299 216.435 113.68C216.062 113.051 215.875 112.336 215.875 111.536C215.875 110.736 216.062 110.027 216.435 109.408C216.808 108.779 217.32 108.293 217.971 107.952C218.632 107.611 219.368 107.44 220.179 107.44C220.819 107.44 221.411 107.557 221.955 107.792C222.51 108.027 222.963 108.373 223.315 108.832V107.52H224.771ZM220.355 114.304C220.91 114.304 221.406 114.187 221.843 113.952C222.291 113.717 222.638 113.392 222.883 112.976C223.139 112.549 223.267 112.069 223.267 111.536C223.267 110.715 222.995 110.053 222.451 109.552C221.907 109.04 221.208 108.784 220.355 108.784C219.491 108.784 218.787 109.04 218.243 109.552C217.699 110.053 217.427 110.715 217.427 111.536C217.427 112.069 217.55 112.549 217.795 112.976C218.051 113.392 218.398 113.717 218.835 113.952C219.283 114.187 219.79 114.304 220.355 114.304ZM237.235 116.128C236.115 116.128 235.102 115.883 234.195 115.392C233.299 114.891 232.595 114.208 232.083 113.344C231.571 112.469 231.315 111.488 231.315 110.4C231.315 109.312 231.571 108.336 232.083 107.472C232.595 106.597 233.304 105.915 234.211 105.424C235.118 104.923 236.131 104.672 237.251 104.672C238.126 104.672 238.926 104.821 239.651 105.12C240.376 105.408 240.995 105.84 241.507 106.416L240.467 107.424C239.624 106.539 238.574 106.096 237.315 106.096C236.483 106.096 235.731 106.283 235.059 106.656C234.387 107.029 233.859 107.547 233.475 108.208C233.102 108.859 232.915 109.589 232.915 110.4C232.915 111.211 233.102 111.947 233.475 112.608C233.859 113.259 234.387 113.771 235.059 114.144C235.731 114.517 236.483 114.704 237.315 114.704C238.563 114.704 239.614 114.256 240.467 113.36L241.507 114.368C240.995 114.944 240.371 115.381 239.635 115.68C238.91 115.979 238.11 116.128 237.235 116.128ZM246.838 116.096C245.995 116.096 245.238 115.909 244.566 115.536C243.894 115.163 243.366 114.651 242.982 114C242.609 113.339 242.422 112.592 242.422 111.76C242.422 110.928 242.609 110.187 242.982 109.536C243.366 108.875 243.894 108.363 244.566 108C245.238 107.627 245.995 107.44 246.838 107.44C247.681 107.44 248.433 107.627 249.094 108C249.766 108.363 250.289 108.875 250.662 109.536C251.046 110.187 251.238 110.928 251.238 111.76C251.238 112.592 251.046 113.339 250.662 114C250.289 114.651 249.766 115.163 249.094 115.536C248.433 115.909 247.681 116.096 246.838 116.096ZM246.838 114.752C247.382 114.752 247.867 114.629 248.294 114.384C248.731 114.128 249.073 113.776 249.318 113.328C249.563 112.869 249.686 112.347 249.686 111.76C249.686 111.173 249.563 110.656 249.318 110.208C249.073 109.749 248.731 109.397 248.294 109.152C247.867 108.907 247.382 108.784 246.838 108.784C246.294 108.784 245.803 108.907 245.366 109.152C244.939 109.397 244.598 109.749 244.342 110.208C244.097 110.656 243.974 111.173 243.974 111.76C243.974 112.347 244.097 112.869 244.342 113.328C244.598 113.776 244.939 114.128 245.366 114.384C245.803 114.629 246.294 114.752 246.838 114.752ZM261.362 104.128V116H259.89V114.656C259.549 115.125 259.117 115.483 258.594 115.728C258.072 115.973 257.496 116.096 256.866 116.096C256.045 116.096 255.309 115.915 254.658 115.552C254.008 115.189 253.496 114.683 253.122 114.032C252.76 113.371 252.578 112.613 252.578 111.76C252.578 110.907 252.76 110.155 253.122 109.504C253.496 108.853 254.008 108.347 254.658 107.984C255.309 107.621 256.045 107.44 256.866 107.44C257.474 107.44 258.034 107.557 258.546 107.792C259.058 108.016 259.485 108.352 259.826 108.8V104.128H261.362ZM256.994 114.752C257.528 114.752 258.013 114.629 258.45 114.384C258.888 114.128 259.229 113.776 259.474 113.328C259.72 112.869 259.842 112.347 259.842 111.76C259.842 111.173 259.72 110.656 259.474 110.208C259.229 109.749 258.888 109.397 258.45 109.152C258.013 108.907 257.528 108.784 256.994 108.784C256.45 108.784 255.96 108.907 255.522 109.152C255.096 109.397 254.754 109.749 254.498 110.208C254.253 110.656 254.13 111.173 254.13 111.76C254.13 112.347 254.253 112.869 254.498 113.328C254.754 113.776 255.096 114.128 255.522 114.384C255.96 114.629 256.45 114.752 256.994 114.752ZM271.933 111.808C271.933 111.925 271.922 112.08 271.901 112.272H265.021C265.117 113.019 265.442 113.621 265.997 114.08C266.562 114.528 267.261 114.752 268.093 114.752C269.106 114.752 269.922 114.411 270.541 113.728L271.389 114.72C271.005 115.168 270.525 115.509 269.949 115.744C269.383 115.979 268.749 116.096 268.045 116.096C267.149 116.096 266.354 115.915 265.661 115.552C264.967 115.179 264.429 114.661 264.045 114C263.671 113.339 263.485 112.592 263.485 111.76C263.485 110.939 263.666 110.197 264.029 109.536C264.402 108.875 264.909 108.363 265.549 108C266.199 107.627 266.93 107.44 267.741 107.44C268.551 107.44 269.271 107.627 269.901 108C270.541 108.363 271.037 108.875 271.389 109.536C271.751 110.197 271.933 110.955 271.933 111.808ZM267.741 108.736C267.005 108.736 266.386 108.96 265.885 109.408C265.394 109.856 265.106 110.443 265.021 111.168H270.461C270.375 110.453 270.082 109.872 269.581 109.424C269.09 108.965 268.477 108.736 267.741 108.736ZM274.449 113.904C274.748 113.904 274.993 114.011 275.185 114.224C275.388 114.427 275.489 114.683 275.489 114.992C275.489 115.152 275.468 115.307 275.425 115.456C275.393 115.605 275.324 115.835 275.217 116.144L274.465 118.368H273.457L274.049 115.984C273.847 115.909 273.681 115.787 273.553 115.616C273.436 115.435 273.377 115.227 273.377 114.992C273.377 114.672 273.479 114.411 273.681 114.208C273.884 114.005 274.14 113.904 274.449 113.904ZM286.579 104.8C288.03 104.8 289.171 105.147 290.003 105.84C290.835 106.533 291.251 107.488 291.251 108.704C291.251 109.92 290.835 110.875 290.003 111.568C289.171 112.261 288.03 112.608 286.579 112.608H283.811V116H282.211V104.8H286.579ZM286.531 111.216C287.545 111.216 288.318 111.003 288.851 110.576C289.385 110.139 289.651 109.515 289.651 108.704C289.651 107.893 289.385 107.275 288.851 106.848C288.318 106.411 287.545 106.192 286.531 106.192H283.811V111.216H286.531ZM294.709 108.944C294.976 108.453 295.371 108.08 295.893 107.824C296.416 107.568 297.051 107.44 297.797 107.44V108.928C297.712 108.917 297.595 108.912 297.445 108.912C296.613 108.912 295.957 109.163 295.477 109.664C295.008 110.155 294.773 110.859 294.773 111.776V116H293.237V107.52H294.709V108.944ZM307.276 111.808C307.276 111.925 307.266 112.08 307.244 112.272H300.364C300.46 113.019 300.786 113.621 301.34 114.08C301.906 114.528 302.604 114.752 303.436 114.752C304.45 114.752 305.266 114.411 305.884 113.728L306.732 114.72C306.348 115.168 305.868 115.509 305.292 115.744C304.727 115.979 304.092 116.096 303.388 116.096C302.492 116.096 301.698 115.915 301.004 115.552C300.311 115.179 299.772 114.661 299.388 114C299.015 113.339 298.828 112.592 298.828 111.76C298.828 110.939 299.01 110.197 299.372 109.536C299.746 108.875 300.252 108.363 300.892 108C301.543 107.627 302.274 107.44 303.084 107.44C303.895 107.44 304.615 107.627 305.244 108C305.884 108.363 306.38 108.875 306.732 109.536C307.095 110.197 307.276 110.955 307.276 111.808ZM303.084 108.736C302.348 108.736 301.73 108.96 301.228 109.408C300.738 109.856 300.45 110.443 300.364 111.168H305.804C305.719 110.453 305.426 109.872 304.924 109.424C304.434 108.965 303.82 108.736 303.084 108.736ZM311.841 116.096C311.148 116.096 310.481 116.005 309.841 115.824C309.201 115.632 308.7 115.392 308.337 115.104L308.977 113.888C309.35 114.155 309.804 114.368 310.337 114.528C310.87 114.688 311.409 114.768 311.953 114.768C313.297 114.768 313.969 114.384 313.969 113.616C313.969 113.36 313.878 113.157 313.697 113.008C313.516 112.859 313.286 112.752 313.009 112.688C312.742 112.613 312.358 112.533 311.857 112.448C311.174 112.341 310.614 112.219 310.177 112.08C309.75 111.941 309.382 111.707 309.073 111.376C308.764 111.045 308.609 110.581 308.609 109.984C308.609 109.216 308.929 108.603 309.569 108.144C310.209 107.675 311.068 107.44 312.145 107.44C312.71 107.44 313.276 107.509 313.841 107.648C314.406 107.787 314.87 107.973 315.233 108.208L314.577 109.424C313.884 108.976 313.068 108.752 312.129 108.752C311.478 108.752 310.982 108.859 310.641 109.072C310.3 109.285 310.129 109.568 310.129 109.92C310.129 110.197 310.225 110.416 310.417 110.576C310.609 110.736 310.844 110.853 311.121 110.928C311.409 111.003 311.809 111.088 312.321 111.184C313.004 111.301 313.553 111.429 313.969 111.568C314.396 111.696 314.758 111.92 315.057 112.24C315.356 112.56 315.505 113.008 315.505 113.584C315.505 114.352 315.174 114.965 314.513 115.424C313.862 115.872 312.972 116.096 311.841 116.096ZM325.089 111.808C325.089 111.925 325.078 112.08 325.057 112.272H318.177C318.273 113.019 318.598 113.621 319.153 114.08C319.718 114.528 320.417 114.752 321.249 114.752C322.262 114.752 323.078 114.411 323.697 113.728L324.545 114.72C324.161 115.168 323.681 115.509 323.105 115.744C322.539 115.979 321.905 116.096 321.201 116.096C320.305 116.096 319.51 115.915 318.817 115.552C318.123 115.179 317.585 114.661 317.201 114C316.827 113.339 316.641 112.592 316.641 111.76C316.641 110.939 316.822 110.197 317.185 109.536C317.558 108.875 318.065 108.363 318.705 108C319.355 107.627 320.086 107.44 320.897 107.44C321.707 107.44 322.427 107.627 323.057 108C323.697 108.363 324.193 108.875 324.545 109.536C324.907 110.197 325.089 110.955 325.089 111.808ZM320.897 108.736C320.161 108.736 319.542 108.96 319.041 109.408C318.55 109.856 318.262 110.443 318.177 111.168H323.617C323.531 110.453 323.238 109.872 322.737 109.424C322.246 108.965 321.633 108.736 320.897 108.736ZM328.694 108.944C328.96 108.453 329.355 108.08 329.878 107.824C330.4 107.568 331.035 107.44 331.782 107.44V108.928C331.696 108.917 331.579 108.912 331.43 108.912C330.598 108.912 329.942 109.163 329.462 109.664C328.992 110.155 328.758 110.859 328.758 111.776V116H327.222V107.52H328.694V108.944ZM341.523 107.52L337.811 116H336.243L332.53 107.52H334.131L337.043 114.32L340.019 107.52H341.523ZM342.956 107.52H344.492V116H342.956V107.52ZM343.724 105.888C343.425 105.888 343.175 105.792 342.972 105.6C342.78 105.408 342.684 105.173 342.684 104.896C342.684 104.619 342.78 104.384 342.972 104.192C343.175 103.989 343.425 103.888 343.724 103.888C344.023 103.888 344.268 103.984 344.46 104.176C344.663 104.357 344.764 104.587 344.764 104.864C344.764 105.152 344.663 105.397 344.46 105.6C344.268 105.792 344.023 105.888 343.724 105.888ZM351.953 107.44C353.03 107.44 353.883 107.755 354.513 108.384C355.153 109.003 355.473 109.915 355.473 111.12V116H353.937V111.296C353.937 110.475 353.739 109.856 353.345 109.44C352.95 109.024 352.385 108.816 351.649 108.816C350.817 108.816 350.161 109.061 349.681 109.552C349.201 110.032 348.961 110.725 348.961 111.632V116H347.425V107.52H348.897V108.8C349.206 108.363 349.622 108.027 350.145 107.792C350.678 107.557 351.281 107.44 351.953 107.44ZM366.474 107.52V114.848C366.474 116.331 366.106 117.424 365.37 118.128C364.634 118.843 363.536 119.2 362.074 119.2C361.274 119.2 360.512 119.088 359.786 118.864C359.061 118.651 358.474 118.341 358.026 117.936L358.762 116.752C359.157 117.093 359.642 117.36 360.218 117.552C360.805 117.755 361.408 117.856 362.026 117.856C363.018 117.856 363.749 117.621 364.218 117.152C364.698 116.683 364.938 115.968 364.938 115.008V114.336C364.576 114.773 364.128 115.104 363.594 115.328C363.072 115.541 362.501 115.648 361.882 115.648C361.072 115.648 360.336 115.477 359.674 115.136C359.024 114.784 358.512 114.299 358.138 113.68C357.765 113.051 357.578 112.336 357.578 111.536C357.578 110.736 357.765 110.027 358.138 109.408C358.512 108.779 359.024 108.293 359.674 107.952C360.336 107.611 361.072 107.44 361.882 107.44C362.522 107.44 363.114 107.557 363.658 107.792C364.213 108.027 364.666 108.373 365.018 108.832V107.52H366.474ZM362.058 114.304C362.613 114.304 363.109 114.187 363.546 113.952C363.994 113.717 364.341 113.392 364.586 112.976C364.842 112.549 364.97 112.069 364.97 111.536C364.97 110.715 364.698 110.053 364.154 109.552C363.61 109.04 362.912 108.784 362.058 108.784C361.194 108.784 360.49 109.04 359.946 109.552C359.402 110.053 359.13 110.715 359.13 111.536C359.13 112.069 359.253 112.549 359.498 112.976C359.754 113.392 360.101 113.717 360.538 113.952C360.986 114.187 361.493 114.304 362.058 114.304ZM373.93 104.8H375.53V116H373.93V104.8ZM383.187 107.44C384.264 107.44 385.118 107.755 385.747 108.384C386.387 109.003 386.707 109.915 386.707 111.12V116H385.171V111.296C385.171 110.475 384.974 109.856 384.579 109.44C384.184 109.024 383.619 108.816 382.883 108.816C382.051 108.816 381.395 109.061 380.915 109.552C380.435 110.032 380.195 110.725 380.195 111.632V116H378.659V107.52H380.131V108.8C380.44 108.363 380.856 108.027 381.379 107.792C381.912 107.557 382.515 107.44 383.187 107.44ZM394.078 107.44C395.155 107.44 396.008 107.755 396.638 108.384C397.278 109.003 397.598 109.915 397.598 111.12V116H396.062V111.296C396.062 110.475 395.864 109.856 395.47 109.44C395.075 109.024 394.51 108.816 393.774 108.816C392.942 108.816 392.286 109.061 391.806 109.552C391.326 110.032 391.086 110.725 391.086 111.632V116H389.55V107.52H391.022V108.8C391.331 108.363 391.747 108.027 392.27 107.792C392.803 107.557 393.406 107.44 394.078 107.44ZM404.119 116.096C403.277 116.096 402.519 115.909 401.847 115.536C401.175 115.163 400.647 114.651 400.263 114C399.89 113.339 399.703 112.592 399.703 111.76C399.703 110.928 399.89 110.187 400.263 109.536C400.647 108.875 401.175 108.363 401.847 108C402.519 107.627 403.277 107.44 404.119 107.44C404.962 107.44 405.714 107.627 406.375 108C407.047 108.363 407.57 108.875 407.943 109.536C408.327 110.187 408.519 110.928 408.519 111.76C408.519 112.592 408.327 113.339 407.943 114C407.57 114.651 407.047 115.163 406.375 115.536C405.714 115.909 404.962 116.096 404.119 116.096ZM404.119 114.752C404.663 114.752 405.149 114.629 405.575 114.384C406.013 114.128 406.354 113.776 406.599 113.328C406.845 112.869 406.967 112.347 406.967 111.76C406.967 111.173 406.845 110.656 406.599 110.208C406.354 109.749 406.013 109.397 405.575 109.152C405.149 108.907 404.663 108.784 404.119 108.784C403.575 108.784 403.085 108.907 402.647 109.152C402.221 109.397 401.879 109.749 401.623 110.208C401.378 110.656 401.255 111.173 401.255 111.76C401.255 112.347 401.378 112.869 401.623 113.328C401.879 113.776 402.221 114.128 402.647 114.384C403.085 114.629 403.575 114.752 404.119 114.752ZM417.913 107.52L414.201 116H412.633L408.921 107.52H410.521L413.433 114.32L416.409 107.52H417.913ZM422.169 107.44C423.342 107.44 424.238 107.728 424.857 108.304C425.486 108.88 425.801 109.739 425.801 110.88V116H424.345V114.88C424.089 115.275 423.721 115.579 423.241 115.792C422.772 115.995 422.212 116.096 421.561 116.096C420.612 116.096 419.849 115.867 419.273 115.408C418.708 114.949 418.425 114.347 418.425 113.6C418.425 112.853 418.697 112.256 419.241 111.808C419.785 111.349 420.649 111.12 421.833 111.12H424.265V110.816C424.265 110.155 424.073 109.648 423.689 109.296C423.305 108.944 422.74 108.768 421.993 108.768C421.492 108.768 421.001 108.853 420.521 109.024C420.041 109.184 419.636 109.403 419.305 109.68L418.665 108.528C419.102 108.176 419.625 107.909 420.233 107.728C420.841 107.536 421.486 107.44 422.169 107.44ZM421.817 114.912C422.404 114.912 422.91 114.784 423.337 114.528C423.764 114.261 424.073 113.888 424.265 113.408V112.224H421.897C420.596 112.224 419.945 112.661 419.945 113.536C419.945 113.963 420.11 114.299 420.441 114.544C420.772 114.789 421.23 114.912 421.817 114.912ZM433.412 115.504C433.188 115.696 432.91 115.845 432.58 115.952C432.249 116.048 431.908 116.096 431.556 116.096C430.702 116.096 430.041 115.867 429.572 115.408C429.102 114.949 428.868 114.293 428.868 113.44V108.784H427.428V107.52H428.868V105.664H430.404V107.52H432.836V108.784H430.404V113.376C430.404 113.835 430.516 114.187 430.74 114.432C430.974 114.677 431.305 114.8 431.732 114.8C432.201 114.8 432.601 114.667 432.932 114.4L433.412 115.504ZM435.269 107.52H436.805V116H435.269V107.52ZM436.037 105.888C435.738 105.888 435.487 105.792 435.285 105.6C435.093 105.408 434.997 105.173 434.997 104.896C434.997 104.619 435.093 104.384 435.285 104.192C435.487 103.989 435.738 103.888 436.037 103.888C436.335 103.888 436.581 103.984 436.773 104.176C436.975 104.357 437.077 104.587 437.077 104.864C437.077 105.152 436.975 105.397 436.773 105.6C436.581 105.792 436.335 105.888 436.037 105.888ZM443.369 116.096C442.527 116.096 441.769 115.909 441.097 115.536C440.425 115.163 439.897 114.651 439.513 114C439.14 113.339 438.953 112.592 438.953 111.76C438.953 110.928 439.14 110.187 439.513 109.536C439.897 108.875 440.425 108.363 441.097 108C441.769 107.627 442.527 107.44 443.369 107.44C444.212 107.44 444.964 107.627 445.625 108C446.297 108.363 446.82 108.875 447.193 109.536C447.577 110.187 447.769 110.928 447.769 111.76C447.769 112.592 447.577 113.339 447.193 114C446.82 114.651 446.297 115.163 445.625 115.536C444.964 115.909 444.212 116.096 443.369 116.096ZM443.369 114.752C443.913 114.752 444.399 114.629 444.825 114.384C445.263 114.128 445.604 113.776 445.849 113.328C446.095 112.869 446.217 112.347 446.217 111.76C446.217 111.173 446.095 110.656 445.849 110.208C445.604 109.749 445.263 109.397 444.825 109.152C444.399 108.907 443.913 108.784 443.369 108.784C442.825 108.784 442.335 108.907 441.897 109.152C441.471 109.397 441.129 109.749 440.873 110.208C440.628 110.656 440.505 111.173 440.505 111.76C440.505 112.347 440.628 112.869 440.873 113.328C441.129 113.776 441.471 114.128 441.897 114.384C442.335 114.629 442.825 114.752 443.369 114.752ZM454.422 107.44C455.499 107.44 456.352 107.755 456.982 108.384C457.622 109.003 457.942 109.915 457.942 111.12V116H456.406V111.296C456.406 110.475 456.208 109.856 455.814 109.44C455.419 109.024 454.854 108.816 454.118 108.816C453.286 108.816 452.63 109.061 452.15 109.552C451.67 110.032 451.43 110.725 451.43 111.632V116H449.894V107.52H451.366V108.8C451.675 108.363 452.091 108.027 452.614 107.792C453.147 107.557 453.75 107.44 454.422 107.44Z" fill="white"/>
</g>
<path d="M139.975 220.92V236H131.135V222.935L127.235 218.58H113.065V236H104.225V190.5H132.76L139.715 197.52V211.3L135.295 215.785L139.975 220.92ZM113.065 211.3H128.73L131.005 209.025V200.185L128.73 197.91H113.065V211.3ZM147.112 229.37V210.39L153.807 203.63H172.072L178.832 210.39V222.675H155.692V226.835L157.772 228.98H168.367L170.317 226.965V225.275H178.767V229.5L172.332 236H153.677L147.112 229.37ZM170.252 216.695V212.925L168.042 210.65H157.902L155.692 212.925V216.695H170.252ZM181.123 203.63H190.028L197.568 226.185H197.828L205.368 203.63H214.273L201.858 236H193.538L181.123 203.63ZM216.873 229.24V210.39L223.568 203.63H242.158L248.853 210.39V229.24L242.158 236H223.568L216.873 229.24ZM237.998 228.85L240.273 226.575V213.055L237.998 210.78H227.728L225.453 213.055V226.575L227.728 228.85H237.998ZM256.315 189.59H264.895V236H256.315V189.59ZM272.677 229.175V203.63H281.257V226.51L283.467 228.72H288.667L295.037 222.35V203.63H303.617V236H295.687V230.475L290.097 236H279.502L272.677 229.175ZM314.33 229.37V210.845H308.48V203.63H314.46V193.1H322.91V203.63H332.79V210.91H322.91V226.575L325.12 228.72H332.79V236H321.025L314.33 229.37ZM337.994 196.87V192.71L340.984 189.72H345.534L348.524 192.71V196.87L345.534 199.86H340.984L337.994 196.87ZM338.969 203.63H347.549V236H338.969V203.63ZM355.379 229.24V210.39L362.074 203.63H380.664L387.359 210.39V229.24L380.664 236H362.074L355.379 229.24ZM376.504 228.85L378.779 226.575V213.055L376.504 210.78H366.234L363.959 213.055V226.575L366.234 228.85H376.504ZM394.496 203.63H402.426V209.025L407.821 203.63H418.286L425.501 210.845V236H416.921V213.185L414.711 210.91H409.251L403.076 217.15V236H394.496V203.63ZM432.638 196.87V192.71L435.628 189.72H440.178L443.168 192.71V196.87L440.178 199.86H435.628L432.638 196.87ZM433.613 203.63H442.193V236H433.613V203.63ZM448.397 229.37L466.402 210.715V210.585H449.047V203.63H477.517V210.26L459.512 228.915V229.045H477.517V236H448.397V229.37ZM482.721 196.87V192.71L485.711 189.72H490.261L493.251 192.71V196.87L490.261 199.86H485.711L482.721 196.87ZM483.696 203.63H492.276V236H483.696V203.63ZM500.755 203.63H508.685V209.025L514.08 203.63H524.545L531.76 210.845V236H523.18V213.185L520.97 210.91H515.51L509.335 217.15V236H500.755V203.63ZM570.552 203.63V243.41L563.532 250.365H545.917L539.872 244.385V239.965H548.452V241.915L549.687 243.215H559.762L561.972 240.94V231.775L557.487 236H545.267L538.572 229.24V210.39L545.267 203.63H558.007L562.622 208.05V203.63H570.552ZM561.972 214.875L557.552 210.91H549.622L547.152 213.445V226.185L549.622 228.72H556.707L561.972 223.325V214.875ZM103.25 306.98V300.48H111.96V304.315L114.105 306.46H127.56L129.77 304.25V296.71L127.625 294.565H110.4L103.38 287.545V275.52L110.4 268.5H130.94L137.96 275.52V282.085H129.25V278.185L127.105 276.04H114.235L112.09 278.185V284.88L114.235 287.025H131.46L138.48 294.045V306.85L131.33 314H110.27L103.25 306.98ZM144.319 307.24V288.39L151.014 281.63H169.604L176.299 288.39V307.24L169.604 314H151.014L144.319 307.24ZM165.444 306.85L167.719 304.575V291.055L165.444 288.78H155.174L152.899 291.055V304.575L155.174 306.85H165.444ZM186.361 288.845H180.511V281.63H186.361V275.195L192.926 268.63H204.886V275.715H196.631L194.811 277.535V281.63H204.886V288.845H194.941V314H186.361V288.845ZM212.387 307.37V288.845H206.537V281.63H212.517V271.1H220.967V281.63H230.847V288.91H220.967V304.575L223.177 306.72H230.847V314H219.082L212.387 307.37ZM233.776 281.63H242.486L246.191 302.04H246.451L252.301 281.63H260.101L265.496 302.04H265.756L269.851 281.63H278.561L270.176 314H262.181L256.201 292.16H255.941L249.571 314H241.576L233.776 281.63ZM281.485 308.02V300.61L287.465 294.63H303.91V290.535L301.895 288.52H292.145L290.195 290.535V292.355H281.745V288.65L288.7 281.63H305.405L312.36 288.65V314H304.625V309.385L299.815 314H287.465L281.485 308.02ZM299.23 307.37L303.91 302.885V300.74H291.69L289.935 302.495V305.745L291.56 307.37H299.23ZM319.847 281.63H327.777V287.025L332.977 281.63H342.207V288.91H334.732L328.427 295.41V314H319.847V281.63ZM344.144 307.37V288.39L350.839 281.63H369.104L375.864 288.39V300.675H352.724V304.835L354.804 306.98H365.399L367.349 304.965V303.275H375.799V307.5L369.364 314H350.709L344.144 307.37ZM367.284 294.695V290.925L365.074 288.65H354.934L352.724 290.925V294.695H367.284ZM399.749 306.98V300.48H408.459V304.315L410.604 306.46H424.059L426.269 304.25V296.71L424.124 294.565H406.899L399.879 287.545V275.52L406.899 268.5H427.439L434.459 275.52V282.085H425.749V278.185L423.604 276.04H410.734L408.589 278.185V284.88L410.734 287.025H427.959L434.979 294.045V306.85L427.829 314H406.769L399.749 306.98ZM440.818 307.37V288.39L447.513 281.63H465.778L472.538 288.39V300.675H449.398V304.835L451.478 306.98H462.073L464.023 304.965V303.275H472.473V307.5L466.038 314H447.383L440.818 307.37ZM463.958 294.695V290.925L461.748 288.65H451.608L449.398 290.925V294.695H463.958ZM478.714 307.37V288.26L485.279 281.63H503.089L509.784 288.39V294.37H501.204V291.185L498.929 288.91H489.569L487.294 291.185V304.445L489.569 306.72H498.929L501.204 304.445V301.26H509.784V307.24L503.089 314H485.279L478.714 307.37ZM515.284 307.175V281.63H523.864V304.51L526.074 306.72H531.274L537.644 300.35V281.63H546.224V314H538.294V308.475L532.704 314H522.109L515.284 307.175ZM554.012 281.63H561.942V287.025L567.142 281.63H576.372V288.91H568.897L562.592 295.41V314H554.012V281.63ZM580.284 274.87V270.71L583.274 267.72H587.824L590.814 270.71V274.87L587.824 277.86H583.274L580.284 274.87ZM581.259 281.63H589.839V314H581.259V281.63ZM601.244 307.37V288.845H595.394V281.63H601.374V271.1H609.824V281.63H619.704V288.91H609.824V304.575L612.034 306.72H619.704V314H607.939L601.244 307.37ZM655.661 281.63V321.41L648.641 328.365H631.611L625.566 322.385V317.965H634.146V319.915L635.381 321.215H644.871L647.081 318.94V309.19L642.271 314H631.546L624.591 306.98V281.63H633.171V304.445L635.381 306.72H641.036L647.081 300.285V281.63H655.661ZM678.556 281.63H687.266L690.971 302.04H691.231L697.081 281.63H704.881L710.276 302.04H710.536L714.631 281.63H723.341L714.956 314H706.961L700.981 292.16H700.721L694.351 314H686.356L678.556 281.63ZM728.184 274.87V270.71L731.174 267.72H735.724L738.714 270.71V274.87L735.724 277.86H731.174L728.184 274.87ZM729.159 281.63H737.739V314H729.159V281.63ZM749.144 307.37V288.845H743.294V281.63H749.274V271.1H757.724V281.63H767.604V288.91H757.724V304.575L759.934 306.72H767.604V314H755.839L749.144 307.37ZM773.133 267.59H781.713V286.635L786.718 281.63H797.053L804.268 288.845V314H795.688V291.185L793.478 288.91H787.888L781.713 295.15V314H773.133V267.59ZM391.012 346.5H399.202L412.722 375.88H412.852L426.437 346.5H434.627V392H426.112V364.31H425.982L415.517 385.63H410.057L399.657 364.31H399.527V392H391.012V346.5ZM442.413 385.175V359.63H450.993V382.51L453.203 384.72H458.403L464.773 378.35V359.63H473.353V392H465.423V386.475L459.833 392H449.238L442.413 385.175ZM484.066 385.37V366.845H478.216V359.63H484.196V349.1H492.646V359.63H502.526V366.91H492.646V382.575L494.856 384.72H502.526V392H490.761L484.066 385.37ZM507.08 386.02V378.61L513.06 372.63H529.505V368.535L527.49 366.52H517.74L515.79 368.535V370.355H507.34V366.65L514.295 359.63H531L537.955 366.65V392H530.22V387.385L525.41 392H513.06L507.08 386.02ZM524.825 385.37L529.505 380.885V378.74H517.285L515.53 380.495V383.745L517.155 385.37H524.825ZM547.733 385.37V366.845H541.883V359.63H547.863V349.1H556.313V359.63H566.193V366.91H556.313V382.575L558.523 384.72H566.193V392H554.428L547.733 385.37ZM571.397 352.87V348.71L574.387 345.72H578.937L581.927 348.71V352.87L578.937 355.86H574.387L571.397 352.87ZM572.372 359.63H580.952V392H572.372V359.63ZM588.782 385.24V366.39L595.477 359.63H614.067L620.762 366.39V385.24L614.067 392H595.477L588.782 385.24ZM609.907 384.85L612.182 382.575V369.055L609.907 366.78H599.637L597.362 369.055V382.575L599.637 384.85H609.907ZM627.899 359.63H635.829V365.025L641.224 359.63H651.689L658.904 366.845V392H650.324V369.185L648.114 366.91H642.654L636.479 373.15V392H627.899V359.63Z" fill="white"/>
<path d="M104.225 346.5H133.345L141.145 354.3V384.2L133.345 392H104.225V346.5ZM128.99 384.46L132.305 381.145V357.355L128.99 354.04H113.065V384.46H128.99ZM179.396 359.63V399.41L172.376 406.365H155.346L149.301 400.385V395.965H157.881V397.915L159.116 399.215H168.606L170.816 396.94V387.19L166.006 392H155.281L148.326 384.98V359.63H156.906V382.445L159.116 384.72H164.771L170.816 378.285V359.63H179.396ZM187.181 359.63H195.111V365.025L200.506 359.63H210.971L218.186 366.845V392H209.606V369.185L207.396 366.91H201.936L195.761 373.15V392H187.181V359.63ZM224.673 386.02V378.61L230.653 372.63H247.098V368.535L245.083 366.52H235.333L233.383 368.535V370.355H224.933V366.65L231.888 359.63H248.593L255.548 366.65V392H247.813V387.385L243.003 392H230.653L224.673 386.02ZM242.418 385.37L247.098 380.885V378.74H234.878L233.123 380.495V383.745L234.748 385.37H242.418ZM263.036 359.63H270.966V364.96L276.231 359.63H284.421L288.841 364.115L293.261 359.63H304.571L311.526 366.65V392H302.946V369.185L300.736 366.91H295.276L291.831 370.355V392H283.511V369.055L281.431 366.91H277.531L271.616 372.89V392H263.036V359.63ZM318.697 352.87V348.71L321.687 345.72H326.237L329.227 348.71V352.87L326.237 355.86H321.687L318.697 352.87ZM319.672 359.63H328.252V392H319.672V359.63ZM336.082 385.37V366.26L342.647 359.63H360.457L367.152 366.39V372.37H358.572V369.185L356.297 366.91H346.937L344.662 369.185V382.445L346.937 384.72H356.297L358.572 382.445V379.26H367.152V385.24L360.457 392H342.647L336.082 385.37Z" fill="#3ED5DD"/>
<path d="M102.31 466.6H104.51V482H102.31V466.6ZM115.039 470.23C116.52 470.23 117.693 470.663 118.559 471.528C119.439 472.379 119.879 473.633 119.879 475.29V482H117.767V475.532C117.767 474.403 117.495 473.552 116.953 472.98C116.41 472.408 115.633 472.122 114.621 472.122C113.477 472.122 112.575 472.459 111.915 473.134C111.255 473.794 110.925 474.747 110.925 475.994V482H108.813V470.34H110.837V472.1C111.262 471.499 111.834 471.037 112.553 470.714C113.286 470.391 114.115 470.23 115.039 470.23ZM130.343 481.318C130.035 481.582 129.654 481.787 129.199 481.934C128.744 482.066 128.275 482.132 127.791 482.132C126.618 482.132 125.708 481.817 125.063 481.186C124.418 480.555 124.095 479.653 124.095 478.48V472.078H122.115V470.34H124.095V467.788H126.207V470.34H129.551V472.078H126.207V478.392C126.207 479.023 126.361 479.507 126.669 479.844C126.992 480.181 127.446 480.35 128.033 480.35C128.678 480.35 129.228 480.167 129.683 479.8L130.343 481.318ZM134.921 472.298C135.287 471.623 135.83 471.11 136.549 470.758C137.267 470.406 138.14 470.23 139.167 470.23V472.276C139.049 472.261 138.888 472.254 138.683 472.254C137.539 472.254 136.637 472.599 135.977 473.288C135.331 473.963 135.009 474.931 135.009 476.192V482H132.897V470.34H134.921V472.298ZM146.656 482.132C145.497 482.132 144.456 481.875 143.532 481.362C142.608 480.849 141.882 480.145 141.354 479.25C140.841 478.341 140.584 477.314 140.584 476.17C140.584 475.026 140.841 474.007 141.354 473.112C141.882 472.203 142.608 471.499 143.532 471C144.456 470.487 145.497 470.23 146.656 470.23C147.815 470.23 148.849 470.487 149.758 471C150.682 471.499 151.401 472.203 151.914 473.112C152.442 474.007 152.706 475.026 152.706 476.17C152.706 477.314 152.442 478.341 151.914 479.25C151.401 480.145 150.682 480.849 149.758 481.362C148.849 481.875 147.815 482.132 146.656 482.132ZM146.656 480.284C147.404 480.284 148.071 480.115 148.658 479.778C149.259 479.426 149.729 478.942 150.066 478.326C150.403 477.695 150.572 476.977 150.572 476.17C150.572 475.363 150.403 474.652 150.066 474.036C149.729 473.405 149.259 472.921 148.658 472.584C148.071 472.247 147.404 472.078 146.656 472.078C145.908 472.078 145.233 472.247 144.632 472.584C144.045 472.921 143.576 473.405 143.224 474.036C142.887 474.652 142.718 475.363 142.718 476.17C142.718 476.977 142.887 477.695 143.224 478.326C143.576 478.942 144.045 479.426 144.632 479.778C145.233 480.115 145.908 480.284 146.656 480.284ZM166.627 465.676V482H164.603V480.152C164.134 480.797 163.54 481.289 162.821 481.626C162.102 481.963 161.31 482.132 160.445 482.132C159.316 482.132 158.304 481.883 157.409 481.384C156.514 480.885 155.81 480.189 155.297 479.294C154.798 478.385 154.549 477.343 154.549 476.17C154.549 474.997 154.798 473.963 155.297 473.068C155.81 472.173 156.514 471.477 157.409 470.978C158.304 470.479 159.316 470.23 160.445 470.23C161.281 470.23 162.051 470.391 162.755 470.714C163.459 471.022 164.046 471.484 164.515 472.1V465.676H166.627ZM160.621 480.284C161.354 480.284 162.022 480.115 162.623 479.778C163.224 479.426 163.694 478.942 164.031 478.326C164.368 477.695 164.537 476.977 164.537 476.17C164.537 475.363 164.368 474.652 164.031 474.036C163.694 473.405 163.224 472.921 162.623 472.584C162.022 472.247 161.354 472.078 160.621 472.078C159.873 472.078 159.198 472.247 158.597 472.584C158.01 472.921 157.541 473.405 157.189 474.036C156.852 474.652 156.683 475.363 156.683 476.17C156.683 476.977 156.852 477.695 157.189 478.326C157.541 478.942 158.01 479.426 158.597 479.778C159.198 480.115 159.873 480.284 160.621 480.284ZM181.491 470.34V482H179.489V480.24C179.064 480.841 178.499 481.311 177.795 481.648C177.106 481.971 176.35 482.132 175.529 482.132C173.974 482.132 172.75 481.707 171.855 480.856C170.96 479.991 170.513 478.722 170.513 477.05V470.34H172.625V476.808C172.625 477.937 172.896 478.795 173.439 479.382C173.982 479.954 174.759 480.24 175.771 480.24C176.886 480.24 177.766 479.903 178.411 479.228C179.056 478.553 179.379 477.6 179.379 476.368V470.34H181.491ZM190.594 482.132C189.406 482.132 188.342 481.875 187.404 481.362C186.48 480.849 185.754 480.145 185.226 479.25C184.698 478.341 184.434 477.314 184.434 476.17C184.434 475.026 184.698 474.007 185.226 473.112C185.754 472.203 186.48 471.499 187.404 471C188.342 470.487 189.406 470.23 190.594 470.23C191.65 470.23 192.588 470.443 193.41 470.868C194.246 471.293 194.891 471.909 195.346 472.716L193.74 473.75C193.373 473.193 192.918 472.775 192.376 472.496C191.833 472.217 191.232 472.078 190.572 472.078C189.809 472.078 189.12 472.247 188.504 472.584C187.902 472.921 187.426 473.405 187.074 474.036C186.736 474.652 186.568 475.363 186.568 476.17C186.568 476.991 186.736 477.717 187.074 478.348C187.426 478.964 187.902 479.441 188.504 479.778C189.12 480.115 189.809 480.284 190.572 480.284C191.232 480.284 191.833 480.145 192.376 479.866C192.918 479.587 193.373 479.169 193.74 478.612L195.346 479.624C194.891 480.431 194.246 481.054 193.41 481.494C192.588 481.919 191.65 482.132 190.594 482.132ZM198.08 470.34H200.192V482H198.08V470.34ZM199.136 468.096C198.725 468.096 198.381 467.964 198.102 467.7C197.838 467.436 197.706 467.113 197.706 466.732C197.706 466.351 197.838 466.028 198.102 465.764C198.381 465.485 198.725 465.346 199.136 465.346C199.547 465.346 199.884 465.478 200.148 465.742C200.427 465.991 200.566 466.307 200.566 466.688C200.566 467.084 200.427 467.421 200.148 467.7C199.884 467.964 199.547 468.096 199.136 468.096ZM210.451 470.23C211.932 470.23 213.105 470.663 213.971 471.528C214.851 472.379 215.291 473.633 215.291 475.29V482H213.179V475.532C213.179 474.403 212.907 473.552 212.365 472.98C211.822 472.408 211.045 472.122 210.033 472.122C208.889 472.122 207.987 472.459 207.327 473.134C206.667 473.794 206.337 474.747 206.337 475.994V482H204.225V470.34H206.249V472.1C206.674 471.499 207.246 471.037 207.965 470.714C208.698 470.391 209.527 470.23 210.451 470.23ZM230.418 470.34V480.416C230.418 482.455 229.912 483.958 228.9 484.926C227.888 485.909 226.377 486.4 224.368 486.4C223.268 486.4 222.219 486.246 221.222 485.938C220.224 485.645 219.418 485.219 218.802 484.662L219.814 483.034C220.356 483.503 221.024 483.87 221.816 484.134C222.622 484.413 223.451 484.552 224.302 484.552C225.666 484.552 226.67 484.229 227.316 483.584C227.976 482.939 228.306 481.956 228.306 480.636V479.712C227.807 480.313 227.191 480.768 226.458 481.076C225.739 481.369 224.954 481.516 224.104 481.516C222.989 481.516 221.977 481.281 221.068 480.812C220.173 480.328 219.469 479.661 218.956 478.81C218.442 477.945 218.186 476.962 218.186 475.862C218.186 474.762 218.442 473.787 218.956 472.936C219.469 472.071 220.173 471.403 221.068 470.934C221.977 470.465 222.989 470.23 224.104 470.23C224.984 470.23 225.798 470.391 226.546 470.714C227.308 471.037 227.932 471.513 228.416 472.144V470.34H230.418ZM224.346 479.668C225.108 479.668 225.79 479.507 226.392 479.184C227.008 478.861 227.484 478.414 227.822 477.842C228.174 477.255 228.35 476.595 228.35 475.862C228.35 474.733 227.976 473.823 227.228 473.134C226.48 472.43 225.519 472.078 224.346 472.078C223.158 472.078 222.19 472.43 221.442 473.134C220.694 473.823 220.32 474.733 220.32 475.862C220.32 476.595 220.488 477.255 220.826 477.842C221.178 478.414 221.654 478.861 222.256 479.184C222.872 479.507 223.568 479.668 224.346 479.668ZM246.917 481.318C246.609 481.582 246.228 481.787 245.773 481.934C245.319 482.066 244.849 482.132 244.365 482.132C243.192 482.132 242.283 481.817 241.637 481.186C240.992 480.555 240.669 479.653 240.669 478.48V472.078H238.689V470.34H240.669V467.788H242.781V470.34H246.125V472.078H242.781V478.392C242.781 479.023 242.935 479.507 243.243 479.844C243.566 480.181 244.021 480.35 244.607 480.35C245.253 480.35 245.803 480.167 246.257 479.8L246.917 481.318ZM255.697 470.23C257.178 470.23 258.351 470.663 259.217 471.528C260.097 472.379 260.537 473.633 260.537 475.29V482H258.425V475.532C258.425 474.403 258.153 473.552 257.611 472.98C257.068 472.408 256.291 472.122 255.279 472.122C254.135 472.122 253.233 472.459 252.573 473.134C251.913 473.794 251.583 474.747 251.583 475.994V482H249.471V465.676H251.583V471.99C252.023 471.433 252.595 471 253.299 470.692C254.017 470.384 254.817 470.23 255.697 470.23ZM275.048 476.236C275.048 476.397 275.033 476.61 275.004 476.874H265.544C265.676 477.901 266.123 478.729 266.886 479.36C267.663 479.976 268.624 480.284 269.768 480.284C271.161 480.284 272.283 479.815 273.134 478.876L274.3 480.24C273.772 480.856 273.112 481.325 272.32 481.648C271.542 481.971 270.67 482.132 269.702 482.132C268.47 482.132 267.377 481.883 266.424 481.384C265.47 480.871 264.73 480.159 264.202 479.25C263.688 478.341 263.432 477.314 263.432 476.17C263.432 475.041 263.681 474.021 264.18 473.112C264.693 472.203 265.39 471.499 266.27 471C267.164 470.487 268.169 470.23 269.284 470.23C270.398 470.23 271.388 470.487 272.254 471C273.134 471.499 273.816 472.203 274.3 473.112C274.798 474.021 275.048 475.063 275.048 476.236ZM269.284 472.012C268.272 472.012 267.421 472.32 266.732 472.936C266.057 473.552 265.661 474.359 265.544 475.356H273.024C272.906 474.373 272.503 473.574 271.814 472.958C271.139 472.327 270.296 472.012 269.284 472.012ZM290.203 466.6C292.197 466.6 293.767 467.077 294.911 468.03C296.055 468.983 296.627 470.296 296.627 471.968C296.627 473.64 296.055 474.953 294.911 475.906C293.767 476.859 292.197 477.336 290.203 477.336H286.397V482H284.197V466.6H290.203ZM290.137 475.422C291.53 475.422 292.593 475.129 293.327 474.542C294.06 473.941 294.427 473.083 294.427 471.968C294.427 470.853 294.06 470.003 293.327 469.416C292.593 468.815 291.53 468.514 290.137 468.514H286.397V475.422H290.137ZM304.502 482.132C303.343 482.132 302.302 481.875 301.378 481.362C300.454 480.849 299.728 480.145 299.2 479.25C298.687 478.341 298.43 477.314 298.43 476.17C298.43 475.026 298.687 474.007 299.2 473.112C299.728 472.203 300.454 471.499 301.378 471C302.302 470.487 303.343 470.23 304.502 470.23C305.661 470.23 306.695 470.487 307.604 471C308.528 471.499 309.247 472.203 309.76 473.112C310.288 474.007 310.552 475.026 310.552 476.17C310.552 477.314 310.288 478.341 309.76 479.25C309.247 480.145 308.528 480.849 307.604 481.362C306.695 481.875 305.661 482.132 304.502 482.132ZM304.502 480.284C305.25 480.284 305.917 480.115 306.504 479.778C307.105 479.426 307.575 478.942 307.912 478.326C308.249 477.695 308.418 476.977 308.418 476.17C308.418 475.363 308.249 474.652 307.912 474.036C307.575 473.405 307.105 472.921 306.504 472.584C305.917 472.247 305.25 472.078 304.502 472.078C303.754 472.078 303.079 472.247 302.478 472.584C301.891 472.921 301.422 473.405 301.07 474.036C300.733 474.652 300.564 475.363 300.564 476.17C300.564 476.977 300.733 477.695 301.07 478.326C301.422 478.942 301.891 479.426 302.478 479.778C303.079 480.115 303.754 480.284 304.502 480.284ZM313.473 465.676H315.585V482H313.473V465.676ZM329.935 470.34L324.281 483.166C323.783 484.354 323.196 485.19 322.521 485.674C321.861 486.158 321.062 486.4 320.123 486.4C319.551 486.4 318.994 486.305 318.451 486.114C317.923 485.938 317.483 485.674 317.131 485.322L318.033 483.738C318.635 484.31 319.331 484.596 320.123 484.596C320.637 484.596 321.062 484.457 321.399 484.178C321.751 483.914 322.067 483.452 322.345 482.792L322.719 481.978L317.571 470.34H319.771L323.841 479.668L327.867 470.34H329.935ZM346.492 470.23C347.959 470.23 349.118 470.655 349.968 471.506C350.834 472.357 351.266 473.618 351.266 475.29V482H349.154V475.532C349.154 474.403 348.89 473.552 348.362 472.98C347.849 472.408 347.108 472.122 346.14 472.122C345.07 472.122 344.219 472.459 343.588 473.134C342.958 473.794 342.642 474.747 342.642 475.994V482H340.53V475.532C340.53 474.403 340.266 473.552 339.738 472.98C339.225 472.408 338.484 472.122 337.516 472.122C336.446 472.122 335.595 472.459 334.964 473.134C334.334 473.794 334.018 474.747 334.018 475.994V482H331.906V470.34H333.93V472.078C334.356 471.477 334.913 471.022 335.602 470.714C336.292 470.391 337.076 470.23 337.956 470.23C338.866 470.23 339.672 470.413 340.376 470.78C341.08 471.147 341.623 471.682 342.004 472.386C342.444 471.711 343.053 471.183 343.83 470.802C344.622 470.421 345.51 470.23 346.492 470.23ZM360.211 482.132C359.052 482.132 358.011 481.875 357.087 481.362C356.163 480.849 355.437 480.145 354.909 479.25C354.396 478.341 354.139 477.314 354.139 476.17C354.139 475.026 354.396 474.007 354.909 473.112C355.437 472.203 356.163 471.499 357.087 471C358.011 470.487 359.052 470.23 360.211 470.23C361.37 470.23 362.404 470.487 363.313 471C364.237 471.499 364.956 472.203 365.469 473.112C365.997 474.007 366.261 475.026 366.261 476.17C366.261 477.314 365.997 478.341 365.469 479.25C364.956 480.145 364.237 480.849 363.313 481.362C362.404 481.875 361.37 482.132 360.211 482.132ZM360.211 480.284C360.959 480.284 361.626 480.115 362.213 479.778C362.814 479.426 363.284 478.942 363.621 478.326C363.958 477.695 364.127 476.977 364.127 476.17C364.127 475.363 363.958 474.652 363.621 474.036C363.284 473.405 362.814 472.921 362.213 472.584C361.626 472.247 360.959 472.078 360.211 472.078C359.463 472.078 358.788 472.247 358.187 472.584C357.6 472.921 357.131 473.405 356.779 474.036C356.442 474.652 356.273 475.363 356.273 476.17C356.273 476.977 356.442 477.695 356.779 478.326C357.131 478.942 357.6 479.426 358.187 479.778C358.788 480.115 359.463 480.284 360.211 480.284ZM371.206 472.298C371.572 471.623 372.115 471.11 372.834 470.758C373.552 470.406 374.425 470.23 375.452 470.23V472.276C375.334 472.261 375.173 472.254 374.968 472.254C373.824 472.254 372.922 472.599 372.262 473.288C371.616 473.963 371.294 474.931 371.294 476.192V482H369.182V470.34H371.206V472.298ZM384.237 470.23C385.366 470.23 386.378 470.479 387.273 470.978C388.167 471.477 388.864 472.173 389.363 473.068C389.876 473.963 390.133 474.997 390.133 476.17C390.133 477.343 389.876 478.385 389.363 479.294C388.864 480.189 388.167 480.885 387.273 481.384C386.378 481.883 385.366 482.132 384.237 482.132C383.401 482.132 382.631 481.971 381.927 481.648C381.237 481.325 380.651 480.856 380.167 480.24V486.268H378.055V470.34H380.079V472.188C380.548 471.543 381.142 471.059 381.861 470.736C382.579 470.399 383.371 470.23 384.237 470.23ZM384.061 480.284C384.809 480.284 385.476 480.115 386.063 479.778C386.664 479.426 387.133 478.942 387.471 478.326C387.823 477.695 387.999 476.977 387.999 476.17C387.999 475.363 387.823 474.652 387.471 474.036C387.133 473.405 386.664 472.921 386.063 472.584C385.476 472.247 384.809 472.078 384.061 472.078C383.327 472.078 382.66 472.254 382.059 472.606C381.472 472.943 381.003 473.42 380.651 474.036C380.313 474.652 380.145 475.363 380.145 476.17C380.145 476.977 380.313 477.695 380.651 478.326C380.988 478.942 381.457 479.426 382.059 479.778C382.66 480.115 383.327 480.284 384.061 480.284ZM399.277 470.23C400.758 470.23 401.931 470.663 402.797 471.528C403.677 472.379 404.117 473.633 404.117 475.29V482H402.005V475.532C402.005 474.403 401.733 473.552 401.191 472.98C400.648 472.408 399.871 472.122 398.859 472.122C397.715 472.122 396.813 472.459 396.153 473.134C395.493 473.794 395.163 474.747 395.163 475.994V482H393.051V465.676H395.163V471.99C395.603 471.433 396.175 471 396.879 470.692C397.597 470.384 398.397 470.23 399.277 470.23ZM408.025 470.34H410.137V482H408.025V470.34ZM409.081 468.096C408.671 468.096 408.326 467.964 408.047 467.7C407.783 467.436 407.651 467.113 407.651 466.732C407.651 466.351 407.783 466.028 408.047 465.764C408.326 465.485 408.671 465.346 409.081 465.346C409.492 465.346 409.829 465.478 410.093 465.742C410.372 465.991 410.511 466.307 410.511 466.688C410.511 467.084 410.372 467.421 410.093 467.7C409.829 467.964 409.492 468.096 409.081 468.096ZM419.252 482.132C418.064 482.132 417.001 481.875 416.062 481.362C415.138 480.849 414.412 480.145 413.884 479.25C413.356 478.341 413.092 477.314 413.092 476.17C413.092 475.026 413.356 474.007 413.884 473.112C414.412 472.203 415.138 471.499 416.062 471C417.001 470.487 418.064 470.23 419.252 470.23C420.308 470.23 421.247 470.443 422.068 470.868C422.904 471.293 423.549 471.909 424.004 472.716L422.398 473.75C422.031 473.193 421.577 472.775 421.034 472.496C420.491 472.217 419.89 472.078 419.23 472.078C418.467 472.078 417.778 472.247 417.162 472.584C416.561 472.921 416.084 473.405 415.732 474.036C415.395 474.652 415.226 475.363 415.226 476.17C415.226 476.991 415.395 477.717 415.732 478.348C416.084 478.964 416.561 479.441 417.162 479.778C417.778 480.115 418.467 480.284 419.23 480.284C419.89 480.284 420.491 480.145 421.034 479.866C421.577 479.587 422.031 479.169 422.398 478.612L424.004 479.624C423.549 480.431 422.904 481.054 422.068 481.494C421.247 481.919 420.308 482.132 419.252 482.132ZM439.841 482.176C438.301 482.176 436.907 481.839 435.661 481.164C434.429 480.475 433.461 479.536 432.757 478.348C432.053 477.145 431.701 475.796 431.701 474.3C431.701 472.804 432.053 471.462 432.757 470.274C433.461 469.071 434.436 468.133 435.683 467.458C436.929 466.769 438.323 466.424 439.863 466.424C441.065 466.424 442.165 466.629 443.163 467.04C444.16 467.436 445.011 468.03 445.715 468.822L444.285 470.208C443.126 468.991 441.681 468.382 439.951 468.382C438.807 468.382 437.773 468.639 436.849 469.152C435.925 469.665 435.199 470.377 434.671 471.286C434.157 472.181 433.901 473.185 433.901 474.3C433.901 475.415 434.157 476.427 434.671 477.336C435.199 478.231 435.925 478.935 436.849 479.448C437.773 479.961 438.807 480.218 439.951 480.218C441.667 480.218 443.111 479.602 444.285 478.37L445.715 479.756C445.011 480.548 444.153 481.149 443.141 481.56C442.143 481.971 441.043 482.176 439.841 482.176ZM453.045 482.132C451.886 482.132 450.845 481.875 449.921 481.362C448.997 480.849 448.271 480.145 447.743 479.25C447.229 478.341 446.973 477.314 446.973 476.17C446.973 475.026 447.229 474.007 447.743 473.112C448.271 472.203 448.997 471.499 449.921 471C450.845 470.487 451.886 470.23 453.045 470.23C454.203 470.23 455.237 470.487 456.147 471C457.071 471.499 457.789 472.203 458.303 473.112C458.831 474.007 459.095 475.026 459.095 476.17C459.095 477.314 458.831 478.341 458.303 479.25C457.789 480.145 457.071 480.849 456.147 481.362C455.237 481.875 454.203 482.132 453.045 482.132ZM453.045 480.284C453.793 480.284 454.46 480.115 455.047 479.778C455.648 479.426 456.117 478.942 456.455 478.326C456.792 477.695 456.961 476.977 456.961 476.17C456.961 475.363 456.792 474.652 456.455 474.036C456.117 473.405 455.648 472.921 455.047 472.584C454.46 472.247 453.793 472.078 453.045 472.078C452.297 472.078 451.622 472.247 451.021 472.584C450.434 472.921 449.965 473.405 449.613 474.036C449.275 474.652 449.107 475.363 449.107 476.17C449.107 476.977 449.275 477.695 449.613 478.326C449.965 478.942 450.434 479.426 451.021 479.778C451.622 480.115 452.297 480.284 453.045 480.284ZM473.016 465.676V482H470.992V480.152C470.522 480.797 469.928 481.289 469.21 481.626C468.491 481.963 467.699 482.132 466.834 482.132C465.704 482.132 464.692 481.883 463.798 481.384C462.903 480.885 462.199 480.189 461.686 479.294C461.187 478.385 460.938 477.343 460.938 476.17C460.938 474.997 461.187 473.963 461.686 473.068C462.199 472.173 462.903 471.477 463.798 470.978C464.692 470.479 465.704 470.23 466.834 470.23C467.67 470.23 468.44 470.391 469.144 470.714C469.848 471.022 470.434 471.484 470.904 472.1V465.676H473.016ZM467.01 480.284C467.743 480.284 468.41 480.115 469.012 479.778C469.613 479.426 470.082 478.942 470.42 478.326C470.757 477.695 470.926 476.977 470.926 476.17C470.926 475.363 470.757 474.652 470.42 474.036C470.082 473.405 469.613 472.921 469.012 472.584C468.41 472.247 467.743 472.078 467.01 472.078C466.262 472.078 465.587 472.247 464.986 472.584C464.399 472.921 463.93 473.405 463.578 474.036C463.24 474.652 463.072 475.363 463.072 476.17C463.072 476.977 463.24 477.695 463.578 478.326C463.93 478.942 464.399 479.426 464.986 479.778C465.587 480.115 466.262 480.284 467.01 480.284ZM487.55 476.236C487.55 476.397 487.535 476.61 487.506 476.874H478.046C478.178 477.901 478.625 478.729 479.388 479.36C480.165 479.976 481.126 480.284 482.27 480.284C483.663 480.284 484.785 479.815 485.636 478.876L486.802 480.24C486.274 480.856 485.614 481.325 484.822 481.648C484.044 481.971 483.172 482.132 482.204 482.132C480.972 482.132 479.879 481.883 478.926 481.384C477.972 480.871 477.232 480.159 476.704 479.25C476.19 478.341 475.934 477.314 475.934 476.17C475.934 475.041 476.183 474.021 476.682 473.112C477.195 472.203 477.892 471.499 478.772 471C479.666 470.487 480.671 470.23 481.786 470.23C482.9 470.23 483.89 470.487 484.756 471C485.636 471.499 486.318 472.203 486.802 473.112C487.3 474.021 487.55 475.063 487.55 476.236ZM481.786 472.012C480.774 472.012 479.923 472.32 479.234 472.936C478.559 473.552 478.163 474.359 478.046 475.356H485.526C485.408 474.373 485.005 473.574 484.316 472.958C483.641 472.327 482.798 472.012 481.786 472.012ZM507.875 480.086V482H496.699V466.6H507.567V468.514H498.899V473.244H506.621V475.114H498.899V480.086H507.875ZM517.355 470.23C518.836 470.23 520.01 470.663 520.875 471.528C521.755 472.379 522.195 473.633 522.195 475.29V482H520.083V475.532C520.083 474.403 519.812 473.552 519.269 472.98C518.726 472.408 517.949 472.122 516.937 472.122C515.793 472.122 514.891 472.459 514.231 473.134C513.571 473.794 513.241 474.747 513.241 475.994V482H511.129V470.34H513.153V472.1C513.578 471.499 514.15 471.037 514.869 470.714C515.602 470.391 516.431 470.23 517.355 470.23ZM537.322 470.34V480.416C537.322 482.455 536.816 483.958 535.804 484.926C534.792 485.909 533.281 486.4 531.272 486.4C530.172 486.4 529.123 486.246 528.126 485.938C527.129 485.645 526.322 485.219 525.706 484.662L526.718 483.034C527.261 483.503 527.928 483.87 528.72 484.134C529.527 484.413 530.355 484.552 531.206 484.552C532.57 484.552 533.575 484.229 534.22 483.584C534.88 482.939 535.21 481.956 535.21 480.636V479.712C534.711 480.313 534.095 480.768 533.362 481.076C532.643 481.369 531.859 481.516 531.008 481.516C529.893 481.516 528.881 481.281 527.972 480.812C527.077 480.328 526.373 479.661 525.86 478.81C525.347 477.945 525.09 476.962 525.09 475.862C525.09 474.762 525.347 473.787 525.86 472.936C526.373 472.071 527.077 471.403 527.972 470.934C528.881 470.465 529.893 470.23 531.008 470.23C531.888 470.23 532.702 470.391 533.45 470.714C534.213 471.037 534.836 471.513 535.32 472.144V470.34H537.322ZM531.25 479.668C532.013 479.668 532.695 479.507 533.296 479.184C533.912 478.861 534.389 478.414 534.726 477.842C535.078 477.255 535.254 476.595 535.254 475.862C535.254 474.733 534.88 473.823 534.132 473.134C533.384 472.43 532.423 472.078 531.25 472.078C530.062 472.078 529.094 472.43 528.346 473.134C527.598 473.823 527.224 474.733 527.224 475.862C527.224 476.595 527.393 477.255 527.73 477.842C528.082 478.414 528.559 478.861 529.16 479.184C529.776 479.507 530.473 479.668 531.25 479.668ZM541.357 470.34H543.469V482H541.357V470.34ZM542.413 468.096C542.003 468.096 541.658 467.964 541.379 467.7C541.115 467.436 540.983 467.113 540.983 466.732C540.983 466.351 541.115 466.028 541.379 465.764C541.658 465.485 542.003 465.346 542.413 465.346C542.824 465.346 543.161 465.478 543.425 465.742C543.704 465.991 543.843 466.307 543.843 466.688C543.843 467.084 543.704 467.421 543.425 467.7C543.161 467.964 542.824 468.096 542.413 468.096ZM553.728 470.23C555.209 470.23 556.383 470.663 557.248 471.528C558.128 472.379 558.568 473.633 558.568 475.29V482H556.456V475.532C556.456 474.403 556.185 473.552 555.642 472.98C555.099 472.408 554.322 472.122 553.31 472.122C552.166 472.122 551.264 472.459 550.604 473.134C549.944 473.794 549.614 474.747 549.614 475.994V482H547.502V470.34H549.526V472.1C549.951 471.499 550.523 471.037 551.242 470.714C551.975 470.391 552.804 470.23 553.728 470.23ZM573.079 476.236C573.079 476.397 573.064 476.61 573.035 476.874H563.575C563.707 477.901 564.154 478.729 564.917 479.36C565.694 479.976 566.655 480.284 567.799 480.284C569.192 480.284 570.314 479.815 571.165 478.876L572.331 480.24C571.803 480.856 571.143 481.325 570.351 481.648C569.574 481.971 568.701 482.132 567.733 482.132C566.501 482.132 565.408 481.883 564.455 481.384C563.502 480.871 562.761 480.159 562.233 479.25C561.72 478.341 561.463 477.314 561.463 476.17C561.463 475.041 561.712 474.021 562.211 473.112C562.724 472.203 563.421 471.499 564.301 471C565.196 470.487 566.2 470.23 567.315 470.23C568.43 470.23 569.42 470.487 570.285 471C571.165 471.499 571.847 472.203 572.331 473.112C572.83 474.021 573.079 475.063 573.079 476.236ZM567.315 472.012C566.303 472.012 565.452 472.32 564.763 472.936C564.088 473.552 563.692 474.359 563.575 475.356H571.055C570.938 474.373 570.534 473.574 569.845 472.958C569.17 472.327 568.327 472.012 567.315 472.012ZM581.172 475.048H587.09V476.874H581.172V475.048ZM606.37 478.15H598.186L596.492 482H594.226L601.2 466.6H603.378L610.374 482H608.064L606.37 478.15ZM605.6 476.39L602.278 468.844L598.956 476.39H605.6ZM631.824 466.6V482H630.02L620.78 470.516V482H618.58V466.6H620.384L629.624 478.084V466.6H631.824ZM646.663 476.236C646.663 476.397 646.648 476.61 646.619 476.874H637.159C637.291 477.901 637.738 478.729 638.501 479.36C639.278 479.976 640.239 480.284 641.383 480.284C642.776 480.284 643.898 479.815 644.749 478.876L645.915 480.24C645.387 480.856 644.727 481.325 643.935 481.648C643.158 481.971 642.285 482.132 641.317 482.132C640.085 482.132 638.992 481.883 638.039 481.384C637.086 480.871 636.345 480.159 635.817 479.25C635.304 478.341 635.047 477.314 635.047 476.17C635.047 475.041 635.296 474.021 635.795 473.112C636.308 472.203 637.005 471.499 637.885 471C638.78 470.487 639.784 470.23 640.899 470.23C642.014 470.23 643.004 470.487 643.869 471C644.749 471.499 645.431 472.203 645.915 473.112C646.414 474.021 646.663 475.063 646.663 476.236ZM640.899 472.012C639.887 472.012 639.036 472.32 638.347 472.936C637.672 473.552 637.276 474.359 637.159 475.356H644.639C644.522 474.373 644.118 473.574 643.429 472.958C642.754 472.327 641.911 472.012 640.899 472.012ZM667.025 470.34L662.669 482H660.645L657.279 473.156L653.869 482H651.845L647.511 470.34H649.513L652.901 479.624L656.421 470.34H658.203L661.657 479.668L665.133 470.34H667.025ZM686.56 480.086V482H675.384V466.6H686.252V468.514H677.584V473.244H685.306V475.114H677.584V480.086H686.56ZM691.839 472.298C692.205 471.623 692.748 471.11 693.466 470.758C694.185 470.406 695.058 470.23 696.085 470.23V472.276C695.967 472.261 695.806 472.254 695.601 472.254C694.457 472.254 693.555 472.599 692.895 473.288C692.249 473.963 691.927 474.931 691.927 476.192V482H689.815V470.34H691.839V472.298ZM702.912 470.23C704.525 470.23 705.757 470.626 706.608 471.418C707.473 472.21 707.906 473.391 707.906 474.96V482H705.904V480.46C705.552 481.003 705.046 481.421 704.386 481.714C703.741 481.993 702.971 482.132 702.076 482.132C700.771 482.132 699.722 481.817 698.93 481.186C698.153 480.555 697.764 479.727 697.764 478.7C697.764 477.673 698.138 476.852 698.886 476.236C699.634 475.605 700.822 475.29 702.45 475.29H705.794V474.872C705.794 473.963 705.53 473.266 705.002 472.782C704.474 472.298 703.697 472.056 702.67 472.056C701.981 472.056 701.306 472.173 700.646 472.408C699.986 472.628 699.429 472.929 698.974 473.31L698.094 471.726C698.695 471.242 699.414 470.875 700.25 470.626C701.086 470.362 701.973 470.23 702.912 470.23ZM702.428 480.504C703.235 480.504 703.931 480.328 704.518 479.976C705.105 479.609 705.53 479.096 705.794 478.436V476.808H702.538C700.749 476.808 699.854 477.409 699.854 478.612C699.854 479.199 700.081 479.661 700.536 479.998C700.991 480.335 701.621 480.504 702.428 480.504ZM717.723 470.34H719.835V482H717.723V470.34ZM718.779 468.096C718.368 468.096 718.023 467.964 717.745 467.7C717.481 467.436 717.349 467.113 717.349 466.732C717.349 466.351 717.481 466.028 717.745 465.764C718.023 465.485 718.368 465.346 718.779 465.346C719.189 465.346 719.527 465.478 719.791 465.742C720.069 465.991 720.209 466.307 720.209 466.688C720.209 467.084 720.069 467.421 719.791 467.7C719.527 467.964 719.189 468.096 718.779 468.096ZM730.093 470.23C731.575 470.23 732.748 470.663 733.613 471.528C734.493 472.379 734.933 473.633 734.933 475.29V482H732.821V475.532C732.821 474.403 732.55 473.552 732.007 472.98C731.465 472.408 730.687 472.122 729.675 472.122C728.531 472.122 727.629 472.459 726.969 473.134C726.309 473.794 725.979 474.747 725.979 475.994V482H723.867V470.34H725.891V472.1C726.317 471.499 726.889 471.037 727.607 470.714C728.341 470.391 729.169 470.23 730.093 470.23ZM108.316 497.6C110.311 497.6 111.88 498.077 113.024 499.03C114.168 499.983 114.74 501.296 114.74 502.968C114.74 504.64 114.168 505.953 113.024 506.906C111.88 507.859 110.311 508.336 108.316 508.336H104.51V513H102.31V497.6H108.316ZM108.25 506.422C109.643 506.422 110.707 506.129 111.44 505.542C112.173 504.941 112.54 504.083 112.54 502.968C112.54 501.853 112.173 501.003 111.44 500.416C110.707 499.815 109.643 499.514 108.25 499.514H104.51V506.422H108.25ZM119.495 503.298C119.861 502.623 120.404 502.11 121.123 501.758C121.841 501.406 122.714 501.23 123.741 501.23V503.276C123.623 503.261 123.462 503.254 123.257 503.254C122.113 503.254 121.211 503.599 120.551 504.288C119.905 504.963 119.583 505.931 119.583 507.192V513H117.471V501.34H119.495V503.298ZM131.23 513.132C130.072 513.132 129.03 512.875 128.106 512.362C127.182 511.849 126.456 511.145 125.928 510.25C125.415 509.341 125.158 508.314 125.158 507.17C125.158 506.026 125.415 505.007 125.928 504.112C126.456 503.203 127.182 502.499 128.106 502C129.03 501.487 130.072 501.23 131.23 501.23C132.389 501.23 133.423 501.487 134.332 502C135.256 502.499 135.975 503.203 136.488 504.112C137.016 505.007 137.28 506.026 137.28 507.17C137.28 508.314 137.016 509.341 136.488 510.25C135.975 511.145 135.256 511.849 134.332 512.362C133.423 512.875 132.389 513.132 131.23 513.132ZM131.23 511.284C131.978 511.284 132.646 511.115 133.232 510.778C133.834 510.426 134.303 509.942 134.64 509.326C134.978 508.695 135.146 507.977 135.146 507.17C135.146 506.363 134.978 505.652 134.64 505.036C134.303 504.405 133.834 503.921 133.232 503.584C132.646 503.247 131.978 503.078 131.23 503.078C130.482 503.078 129.808 503.247 129.206 503.584C128.62 503.921 128.15 504.405 127.798 505.036C127.461 505.652 127.292 506.363 127.292 507.17C127.292 507.977 127.461 508.695 127.798 509.326C128.15 509.942 128.62 510.426 129.206 510.778C129.808 511.115 130.482 511.284 131.23 511.284ZM146.757 512.318C146.449 512.582 146.068 512.787 145.613 512.934C145.159 513.066 144.689 513.132 144.205 513.132C143.032 513.132 142.123 512.817 141.477 512.186C140.832 511.555 140.509 510.653 140.509 509.48V503.078H138.529V501.34H140.509V498.788H142.621V501.34H145.965V503.078H142.621V509.392C142.621 510.023 142.775 510.507 143.083 510.844C143.406 511.181 143.861 511.35 144.447 511.35C145.093 511.35 145.643 511.167 146.097 510.8L146.757 512.318ZM159.462 507.236C159.462 507.397 159.447 507.61 159.418 507.874H149.958C150.09 508.901 150.537 509.729 151.3 510.36C152.077 510.976 153.038 511.284 154.182 511.284C155.575 511.284 156.697 510.815 157.548 509.876L158.714 511.24C158.186 511.856 157.526 512.325 156.734 512.648C155.957 512.971 155.084 513.132 154.116 513.132C152.884 513.132 151.791 512.883 150.838 512.384C149.885 511.871 149.144 511.159 148.616 510.25C148.103 509.341 147.846 508.314 147.846 507.17C147.846 506.041 148.095 505.021 148.594 504.112C149.107 503.203 149.804 502.499 150.684 502C151.579 501.487 152.583 501.23 153.698 501.23C154.813 501.23 155.803 501.487 156.668 502C157.548 502.499 158.23 503.203 158.714 504.112C159.213 505.021 159.462 506.063 159.462 507.236ZM153.698 503.012C152.686 503.012 151.835 503.32 151.146 503.936C150.471 504.552 150.075 505.359 149.958 506.356H157.438C157.321 505.373 156.917 504.574 156.228 503.958C155.553 503.327 154.71 503.012 153.698 503.012ZM167.477 513.132C166.289 513.132 165.225 512.875 164.287 512.362C163.363 511.849 162.637 511.145 162.109 510.25C161.581 509.341 161.317 508.314 161.317 507.17C161.317 506.026 161.581 505.007 162.109 504.112C162.637 503.203 163.363 502.499 164.287 502C165.225 501.487 166.289 501.23 167.477 501.23C168.533 501.23 169.471 501.443 170.293 501.868C171.129 502.293 171.774 502.909 172.229 503.716L170.623 504.75C170.256 504.193 169.801 503.775 169.259 503.496C168.716 503.217 168.115 503.078 167.455 503.078C166.692 503.078 166.003 503.247 165.387 503.584C164.785 503.921 164.309 504.405 163.957 505.036C163.619 505.652 163.451 506.363 163.451 507.17C163.451 507.991 163.619 508.717 163.957 509.348C164.309 509.964 164.785 510.441 165.387 510.778C166.003 511.115 166.692 511.284 167.455 511.284C168.115 511.284 168.716 511.145 169.259 510.866C169.801 510.587 170.256 510.169 170.623 509.612L172.229 510.624C171.774 511.431 171.129 512.054 170.293 512.494C169.471 512.919 168.533 513.132 167.477 513.132ZM181.669 512.318C181.361 512.582 180.98 512.787 180.525 512.934C180.071 513.066 179.601 513.132 179.117 513.132C177.944 513.132 177.035 512.817 176.389 512.186C175.744 511.555 175.421 510.653 175.421 509.48V503.078H173.441V501.34H175.421V498.788H177.533V501.34H180.877V503.078H177.533V509.392C177.533 510.023 177.687 510.507 177.995 510.844C178.318 511.181 178.773 511.35 179.359 511.35C180.005 511.35 180.555 511.167 181.009 510.8L181.669 512.318ZM184.223 501.34H186.335V513H184.223V501.34ZM185.279 499.096C184.868 499.096 184.523 498.964 184.245 498.7C183.981 498.436 183.849 498.113 183.849 497.732C183.849 497.351 183.981 497.028 184.245 496.764C184.523 496.485 184.868 496.346 185.279 496.346C185.689 496.346 186.027 496.478 186.291 496.742C186.569 496.991 186.709 497.307 186.709 497.688C186.709 498.084 186.569 498.421 186.291 498.7C186.027 498.964 185.689 499.096 185.279 499.096ZM196.593 501.23C198.075 501.23 199.248 501.663 200.113 502.528C200.993 503.379 201.433 504.633 201.433 506.29V513H199.321V506.532C199.321 505.403 199.05 504.552 198.507 503.98C197.965 503.408 197.187 503.122 196.175 503.122C195.031 503.122 194.129 503.459 193.469 504.134C192.809 504.794 192.479 505.747 192.479 506.994V513H190.367V501.34H192.391V503.1C192.817 502.499 193.389 502.037 194.107 501.714C194.841 501.391 195.669 501.23 196.593 501.23ZM216.56 501.34V511.416C216.56 513.455 216.054 514.958 215.042 515.926C214.03 516.909 212.52 517.4 210.51 517.4C209.41 517.4 208.362 517.246 207.364 516.938C206.367 516.645 205.56 516.219 204.944 515.662L205.956 514.034C206.499 514.503 207.166 514.87 207.958 515.134C208.765 515.413 209.594 515.552 210.444 515.552C211.808 515.552 212.813 515.229 213.458 514.584C214.118 513.939 214.448 512.956 214.448 511.636V510.712C213.95 511.313 213.334 511.768 212.6 512.076C211.882 512.369 211.097 512.516 210.246 512.516C209.132 512.516 208.12 512.281 207.21 511.812C206.316 511.328 205.612 510.661 205.098 509.81C204.585 508.945 204.328 507.962 204.328 506.862C204.328 505.762 204.585 504.787 205.098 503.936C205.612 503.071 206.316 502.403 207.21 501.934C208.12 501.465 209.132 501.23 210.246 501.23C211.126 501.23 211.94 501.391 212.688 501.714C213.451 502.037 214.074 502.513 214.558 503.144V501.34H216.56ZM210.488 510.668C211.251 510.668 211.933 510.507 212.534 510.184C213.15 509.861 213.627 509.414 213.964 508.842C214.316 508.255 214.492 507.595 214.492 506.862C214.492 505.733 214.118 504.823 213.37 504.134C212.622 503.43 211.662 503.078 210.488 503.078C209.3 503.078 208.332 503.43 207.584 504.134C206.836 504.823 206.462 505.733 206.462 506.862C206.462 507.595 206.631 508.255 206.968 508.842C207.32 509.414 207.797 509.861 208.398 510.184C209.014 510.507 209.711 510.668 210.488 510.668ZM232.708 507.676V513H230.53V507.632L224.414 497.6H226.768L231.696 505.718L236.646 497.6H238.824L232.708 507.676ZM244.432 513.132C243.273 513.132 242.232 512.875 241.308 512.362C240.384 511.849 239.658 511.145 239.13 510.25C238.616 509.341 238.36 508.314 238.36 507.17C238.36 506.026 238.616 505.007 239.13 504.112C239.658 503.203 240.384 502.499 241.308 502C242.232 501.487 243.273 501.23 244.432 501.23C245.59 501.23 246.624 501.487 247.534 502C248.458 502.499 249.176 503.203 249.69 504.112C250.218 505.007 250.482 506.026 250.482 507.17C250.482 508.314 250.218 509.341 249.69 510.25C249.176 511.145 248.458 511.849 247.534 512.362C246.624 512.875 245.59 513.132 244.432 513.132ZM244.432 511.284C245.18 511.284 245.847 511.115 246.434 510.778C247.035 510.426 247.504 509.942 247.842 509.326C248.179 508.695 248.348 507.977 248.348 507.17C248.348 506.363 248.179 505.652 247.842 505.036C247.504 504.405 247.035 503.921 246.434 503.584C245.847 503.247 245.18 503.078 244.432 503.078C243.684 503.078 243.009 503.247 242.408 503.584C241.821 503.921 241.352 504.405 241 505.036C240.662 505.652 240.494 506.363 240.494 507.17C240.494 507.977 240.662 508.695 241 509.326C241.352 509.942 241.821 510.426 242.408 510.778C243.009 511.115 243.684 511.284 244.432 511.284ZM264.27 501.34V513H262.268V511.24C261.843 511.841 261.278 512.311 260.574 512.648C259.885 512.971 259.13 513.132 258.308 513.132C256.754 513.132 255.529 512.707 254.634 511.856C253.74 510.991 253.292 509.722 253.292 508.05V501.34H255.404V507.808C255.404 508.937 255.676 509.795 256.218 510.382C256.761 510.954 257.538 511.24 258.55 511.24C259.665 511.24 260.545 510.903 261.19 510.228C261.836 509.553 262.158 508.6 262.158 507.368V501.34H264.27ZM270.315 503.298C270.682 502.623 271.224 502.11 271.943 501.758C272.662 501.406 273.534 501.23 274.561 501.23V503.276C274.444 503.261 274.282 503.254 274.077 503.254C272.933 503.254 272.031 503.599 271.371 504.288C270.726 504.963 270.403 505.931 270.403 507.192V513H268.291V501.34H270.315V503.298ZM288.019 513.176C286.86 513.176 285.738 513 284.653 512.648C283.582 512.281 282.739 511.812 282.123 511.24L282.937 509.524C283.523 510.052 284.271 510.485 285.181 510.822C286.105 511.145 287.051 511.306 288.019 511.306C289.295 511.306 290.248 511.093 290.879 510.668C291.509 510.228 291.825 509.649 291.825 508.93C291.825 508.402 291.649 507.977 291.297 507.654C290.959 507.317 290.534 507.06 290.021 506.884C289.522 506.708 288.811 506.51 287.887 506.29C286.728 506.011 285.789 505.733 285.071 505.454C284.367 505.175 283.758 504.75 283.245 504.178C282.746 503.591 282.497 502.807 282.497 501.824C282.497 501.003 282.709 500.262 283.135 499.602C283.575 498.942 284.235 498.414 285.115 498.018C285.995 497.622 287.087 497.424 288.393 497.424C289.302 497.424 290.197 497.541 291.077 497.776C291.957 498.011 292.712 498.348 293.343 498.788L292.617 500.548C291.971 500.137 291.282 499.829 290.549 499.624C289.815 499.404 289.097 499.294 288.393 499.294C287.146 499.294 286.207 499.521 285.577 499.976C284.961 500.431 284.653 501.017 284.653 501.736C284.653 502.264 284.829 502.697 285.181 503.034C285.533 503.357 285.965 503.613 286.479 503.804C287.007 503.98 287.718 504.171 288.613 504.376C289.771 504.655 290.703 504.933 291.407 505.212C292.111 505.491 292.712 505.916 293.211 506.488C293.724 507.06 293.981 507.83 293.981 508.798C293.981 509.605 293.761 510.345 293.321 511.02C292.881 511.68 292.213 512.208 291.319 512.604C290.424 512.985 289.324 513.176 288.019 513.176ZM301.881 513.132C300.722 513.132 299.681 512.875 298.757 512.362C297.833 511.849 297.107 511.145 296.579 510.25C296.065 509.341 295.809 508.314 295.809 507.17C295.809 506.026 296.065 505.007 296.579 504.112C297.107 503.203 297.833 502.499 298.757 502C299.681 501.487 300.722 501.23 301.881 501.23C303.039 501.23 304.073 501.487 304.983 502C305.907 502.499 306.625 503.203 307.139 504.112C307.667 505.007 307.931 506.026 307.931 507.17C307.931 508.314 307.667 509.341 307.139 510.25C306.625 511.145 305.907 511.849 304.983 512.362C304.073 512.875 303.039 513.132 301.881 513.132ZM301.881 511.284C302.629 511.284 303.296 511.115 303.883 510.778C304.484 510.426 304.953 509.942 305.291 509.326C305.628 508.695 305.797 507.977 305.797 507.17C305.797 506.363 305.628 505.652 305.291 505.036C304.953 504.405 304.484 503.921 303.883 503.584C303.296 503.247 302.629 503.078 301.881 503.078C301.133 503.078 300.458 503.247 299.857 503.584C299.27 503.921 298.801 504.405 298.449 505.036C298.111 505.652 297.943 506.363 297.943 507.17C297.943 507.977 298.111 508.695 298.449 509.326C298.801 509.942 299.27 510.426 299.857 510.778C300.458 511.115 301.133 511.284 301.881 511.284ZM315.12 498.282C313.858 498.282 313.228 498.964 313.228 500.328V501.34H316.616V503.078H313.272V513H311.16V503.078H309.18V501.34H311.16V500.306C311.16 499.147 311.497 498.231 312.172 497.556C312.846 496.881 313.792 496.544 315.01 496.544C315.479 496.544 315.919 496.603 316.33 496.72C316.74 496.837 317.092 497.006 317.386 497.226L316.748 498.832C316.264 498.465 315.721 498.282 315.12 498.282ZM325.163 512.318C324.855 512.582 324.474 512.787 324.019 512.934C323.565 513.066 323.095 513.132 322.611 513.132C321.438 513.132 320.529 512.817 319.883 512.186C319.238 511.555 318.915 510.653 318.915 509.48V503.078H316.935V501.34H318.915V498.788H321.027V501.34H324.371V503.078H321.027V509.392C321.027 510.023 321.181 510.507 321.489 510.844C321.812 511.181 322.267 511.35 322.853 511.35C323.499 511.35 324.049 511.167 324.503 510.8L325.163 512.318ZM345.146 501.34L340.79 513H338.766L335.4 504.156L331.99 513H329.966L325.632 501.34H327.634L331.022 510.624L334.542 501.34H336.324L339.778 510.668L343.254 501.34H345.146ZM351.17 501.23C352.783 501.23 354.015 501.626 354.866 502.418C355.731 503.21 356.164 504.391 356.164 505.96V513H354.162V511.46C353.81 512.003 353.304 512.421 352.644 512.714C351.999 512.993 351.229 513.132 350.334 513.132C349.029 513.132 347.98 512.817 347.188 512.186C346.411 511.555 346.022 510.727 346.022 509.7C346.022 508.673 346.396 507.852 347.144 507.236C347.892 506.605 349.08 506.29 350.708 506.29H354.052V505.872C354.052 504.963 353.788 504.266 353.26 503.782C352.732 503.298 351.955 503.056 350.928 503.056C350.239 503.056 349.564 503.173 348.904 503.408C348.244 503.628 347.687 503.929 347.232 504.31L346.352 502.726C346.953 502.242 347.672 501.875 348.508 501.626C349.344 501.362 350.231 501.23 351.17 501.23ZM350.686 511.504C351.493 511.504 352.189 511.328 352.776 510.976C353.363 510.609 353.788 510.096 354.052 509.436V507.808H350.796C349.007 507.808 348.112 508.409 348.112 509.612C348.112 510.199 348.339 510.661 348.794 510.998C349.249 511.335 349.879 511.504 350.686 511.504ZM362.096 503.298C362.463 502.623 363.006 502.11 363.724 501.758C364.443 501.406 365.316 501.23 366.342 501.23V503.276C366.225 503.261 366.064 503.254 365.858 503.254C364.714 503.254 363.812 503.599 363.152 504.288C362.507 504.963 362.184 505.931 362.184 507.192V513H360.072V501.34H362.096V503.298ZM379.376 507.236C379.376 507.397 379.361 507.61 379.332 507.874H369.872C370.004 508.901 370.451 509.729 371.214 510.36C371.991 510.976 372.952 511.284 374.096 511.284C375.489 511.284 376.611 510.815 377.462 509.876L378.628 511.24C378.1 511.856 377.44 512.325 376.648 512.648C375.871 512.971 374.998 513.132 374.03 513.132C372.798 513.132 371.705 512.883 370.752 512.384C369.799 511.871 369.058 511.159 368.53 510.25C368.017 509.341 367.76 508.314 367.76 507.17C367.76 506.041 368.009 505.021 368.508 504.112C369.021 503.203 369.718 502.499 370.598 502C371.493 501.487 372.497 501.23 373.612 501.23C374.727 501.23 375.717 501.487 376.582 502C377.462 502.499 378.144 503.203 378.628 504.112C379.127 505.021 379.376 506.063 379.376 507.236ZM373.612 503.012C372.6 503.012 371.749 503.32 371.06 503.936C370.385 504.552 369.989 505.359 369.872 506.356H377.352C377.235 505.373 376.831 504.574 376.142 503.958C375.467 503.327 374.624 503.012 373.612 503.012ZM382.815 513.132C382.404 513.132 382.052 512.993 381.759 512.714C381.465 512.421 381.319 512.054 381.319 511.614C381.319 511.189 381.465 510.837 381.759 510.558C382.052 510.265 382.404 510.118 382.815 510.118C383.225 510.118 383.57 510.257 383.849 510.536C384.127 510.815 384.267 511.174 384.267 511.614C384.267 512.054 384.12 512.421 383.827 512.714C383.548 512.993 383.211 513.132 382.815 513.132Z" fill="white"/>
<g filter="url(#filter1_d_1_12138)">
<rect x="100" y="591" width="181" height="56" rx="15" fill="#3ED5DD" shape-rendering="crispEdges"/>
<rect x="101" y="592" width="179" height="54" rx="14" stroke="url(#paint1_linear_1_12138)" stroke-width="2" shape-rendering="crispEdges"/>
<path d="M133.88 612H136.48V623.8H143.8V626H133.88V612ZM155.555 620.72C155.555 620.893 155.542 621.14 155.515 621.46H147.135C147.282 622.247 147.662 622.873 148.275 623.34C148.902 623.793 149.675 624.02 150.595 624.02C151.768 624.02 152.735 623.633 153.495 622.86L154.835 624.4C154.355 624.973 153.748 625.407 153.015 625.7C152.282 625.993 151.455 626.14 150.535 626.14C149.362 626.14 148.328 625.907 147.435 625.44C146.542 624.973 145.848 624.327 145.355 623.5C144.875 622.66 144.635 621.713 144.635 620.66C144.635 619.62 144.868 618.687 145.335 617.86C145.815 617.02 146.475 616.367 147.315 615.9C148.155 615.433 149.102 615.2 150.155 615.2C151.195 615.2 152.122 615.433 152.935 615.9C153.762 616.353 154.402 617 154.855 617.84C155.322 618.667 155.555 619.627 155.555 620.72ZM150.155 617.2C149.355 617.2 148.675 617.44 148.115 617.92C147.568 618.387 147.235 619.013 147.115 619.8H153.175C153.068 619.027 152.742 618.4 152.195 617.92C151.648 617.44 150.968 617.2 150.155 617.2ZM161.743 615.2C163.317 615.2 164.517 615.58 165.343 616.34C166.183 617.087 166.603 618.22 166.603 619.74V626H164.243V624.7C163.937 625.167 163.497 625.527 162.923 625.78C162.363 626.02 161.683 626.14 160.883 626.14C160.083 626.14 159.383 626.007 158.783 625.74C158.183 625.46 157.717 625.08 157.383 624.6C157.063 624.107 156.903 623.553 156.903 622.94C156.903 621.98 157.257 621.213 157.963 620.64C158.683 620.053 159.81 619.76 161.343 619.76H164.103V619.6C164.103 618.853 163.877 618.28 163.423 617.88C162.983 617.48 162.323 617.28 161.443 617.28C160.843 617.28 160.25 617.373 159.663 617.56C159.09 617.747 158.603 618.007 158.203 618.34L157.223 616.52C157.783 616.093 158.457 615.767 159.243 615.54C160.03 615.313 160.863 615.2 161.743 615.2ZM161.403 624.32C162.03 624.32 162.583 624.18 163.063 623.9C163.557 623.607 163.903 623.193 164.103 622.66V621.42H161.523C160.083 621.42 159.363 621.893 159.363 622.84C159.363 623.293 159.543 623.653 159.903 623.92C160.263 624.187 160.763 624.32 161.403 624.32ZM172.192 616.88C172.912 615.76 174.179 615.2 175.992 615.2V617.58C175.779 617.54 175.585 617.52 175.412 617.52C174.439 617.52 173.679 617.807 173.132 618.38C172.585 618.94 172.312 619.753 172.312 620.82V626H169.812V615.32H172.192V616.88ZM184.173 615.2C185.519 615.2 186.599 615.593 187.413 616.38C188.226 617.167 188.633 618.333 188.633 619.88V626H186.133V620.2C186.133 619.267 185.913 618.567 185.473 618.1C185.033 617.62 184.406 617.38 183.593 617.38C182.673 617.38 181.946 617.66 181.413 618.22C180.879 618.767 180.613 619.56 180.613 620.6V626H178.113V615.32H180.493V616.7C180.906 616.207 181.426 615.833 182.053 615.58C182.679 615.327 183.386 615.2 184.173 615.2ZM210.431 626L210.411 616.72L205.811 624.4H204.651L200.051 616.84V626H197.571V612H199.711L205.271 621.28L210.731 612H212.871L212.891 626H210.431ZM221.233 626.14C220.153 626.14 219.18 625.907 218.313 625.44C217.446 624.973 216.766 624.327 216.273 623.5C215.793 622.66 215.553 621.713 215.553 620.66C215.553 619.607 215.793 618.667 216.273 617.84C216.766 617.013 217.446 616.367 218.313 615.9C219.18 615.433 220.153 615.2 221.233 615.2C222.326 615.2 223.306 615.433 224.173 615.9C225.04 616.367 225.713 617.013 226.193 617.84C226.686 618.667 226.933 619.607 226.933 620.66C226.933 621.713 226.686 622.66 226.193 623.5C225.713 624.327 225.04 624.973 224.173 625.44C223.306 625.907 222.326 626.14 221.233 626.14ZM221.233 624C222.153 624 222.913 623.693 223.513 623.08C224.113 622.467 224.413 621.66 224.413 620.66C224.413 619.66 224.113 618.853 223.513 618.24C222.913 617.627 222.153 617.32 221.233 617.32C220.313 617.32 219.553 617.627 218.953 618.24C218.366 618.853 218.073 619.66 218.073 620.66C218.073 621.66 218.366 622.467 218.953 623.08C219.553 623.693 220.313 624 221.233 624ZM231.704 616.88C232.424 615.76 233.69 615.2 235.504 615.2V617.58C235.29 617.54 235.097 617.52 234.924 617.52C233.95 617.52 233.19 617.807 232.644 618.38C232.097 618.94 231.824 619.753 231.824 620.82V626H229.324V615.32H231.704V616.88ZM247.567 620.72C247.567 620.893 247.553 621.14 247.527 621.46H239.147C239.293 622.247 239.673 622.873 240.287 623.34C240.913 623.793 241.687 624.02 242.607 624.02C243.78 624.02 244.747 623.633 245.507 622.86L246.847 624.4C246.367 624.973 245.76 625.407 245.027 625.7C244.293 625.993 243.467 626.14 242.547 626.14C241.373 626.14 240.34 625.907 239.447 625.44C238.553 624.973 237.86 624.327 237.367 623.5C236.887 622.66 236.647 621.713 236.647 620.66C236.647 619.62 236.88 618.687 237.347 617.86C237.827 617.02 238.487 616.367 239.327 615.9C240.167 615.433 241.113 615.2 242.167 615.2C243.207 615.2 244.133 615.433 244.947 615.9C245.773 616.353 246.413 617 246.867 617.84C247.333 618.667 247.567 619.627 247.567 620.72ZM242.167 617.2C241.367 617.2 240.687 617.44 240.127 617.92C239.58 618.387 239.247 619.013 239.127 619.8H245.187C245.08 619.027 244.753 618.4 244.207 617.92C243.66 617.44 242.98 617.2 242.167 617.2Z" fill="#1E1E1E"/>
</g>
<g filter="url(#filter2_d_1_12138)">
<rect x="311" y="591" width="168" height="56" rx="15" fill="#00040F" shape-rendering="crispEdges"/>
<rect x="312" y="592" width="166" height="54" rx="14" stroke="url(#paint2_linear_1_12138)" stroke-width="2" shape-rendering="crispEdges"/>
<path d="M349.22 626.2C348.14 626.2 347.093 626.047 346.08 625.74C345.08 625.433 344.287 625.027 343.7 624.52L344.6 622.5C345.173 622.953 345.873 623.327 346.7 623.62C347.54 623.9 348.38 624.04 349.22 624.04C350.26 624.04 351.033 623.873 351.54 623.54C352.06 623.207 352.32 622.767 352.32 622.22C352.32 621.82 352.173 621.493 351.88 621.24C351.6 620.973 351.24 620.767 350.8 620.62C350.36 620.473 349.76 620.307 349 620.12C347.933 619.867 347.067 619.613 346.4 619.36C345.747 619.107 345.18 618.713 344.7 618.18C344.233 617.633 344 616.9 344 615.98C344 615.207 344.207 614.507 344.62 613.88C345.047 613.24 345.68 612.733 346.52 612.36C347.373 611.987 348.413 611.8 349.64 611.8C350.493 611.8 351.333 611.907 352.16 612.12C352.987 612.333 353.7 612.64 354.3 613.04L353.48 615.06C352.867 614.7 352.227 614.427 351.56 614.24C350.893 614.053 350.247 613.96 349.62 613.96C348.593 613.96 347.827 614.133 347.32 614.48C346.827 614.827 346.58 615.287 346.58 615.86C346.58 616.26 346.72 616.587 347 616.84C347.293 617.093 347.66 617.293 348.1 617.44C348.54 617.587 349.14 617.753 349.9 617.94C350.94 618.18 351.793 618.433 352.46 618.7C353.127 618.953 353.693 619.347 354.16 619.88C354.64 620.413 354.88 621.133 354.88 622.04C354.88 622.813 354.667 623.513 354.24 624.14C353.827 624.767 353.193 625.267 352.34 625.64C351.487 626.013 350.447 626.2 349.22 626.2ZM363.638 625.42C363.345 625.66 362.985 625.84 362.558 625.96C362.145 626.08 361.705 626.14 361.238 626.14C360.065 626.14 359.158 625.833 358.518 625.22C357.878 624.607 357.558 623.713 357.558 622.54V617.4H355.798V615.4H357.558V612.96H360.058V615.4H362.918V617.4H360.058V622.48C360.058 623 360.185 623.4 360.438 623.68C360.691 623.947 361.058 624.08 361.538 624.08C362.098 624.08 362.565 623.933 362.938 623.64L363.638 625.42ZM369.775 615.2C371.348 615.2 372.548 615.58 373.375 616.34C374.215 617.087 374.635 618.22 374.635 619.74V626H372.275V624.7C371.968 625.167 371.528 625.527 370.955 625.78C370.395 626.02 369.715 626.14 368.915 626.14C368.115 626.14 367.415 626.007 366.815 625.74C366.215 625.46 365.748 625.08 365.415 624.6C365.095 624.107 364.935 623.553 364.935 622.94C364.935 621.98 365.288 621.213 365.995 620.64C366.715 620.053 367.841 619.76 369.375 619.76H372.135V619.6C372.135 618.853 371.908 618.28 371.455 617.88C371.015 617.48 370.355 617.28 369.475 617.28C368.875 617.28 368.281 617.373 367.695 617.56C367.121 617.747 366.635 618.007 366.235 618.34L365.255 616.52C365.815 616.093 366.488 615.767 367.275 615.54C368.061 615.313 368.895 615.2 369.775 615.2ZM369.435 624.32C370.061 624.32 370.615 624.18 371.095 623.9C371.588 623.607 371.935 623.193 372.135 622.66V621.42H369.555C368.115 621.42 367.395 621.893 367.395 622.84C367.395 623.293 367.575 623.653 367.935 623.92C368.295 624.187 368.795 624.32 369.435 624.32ZM380.223 616.88C380.943 615.76 382.21 615.2 384.023 615.2V617.58C383.81 617.54 383.616 617.52 383.443 617.52C382.47 617.52 381.71 617.807 381.163 618.38C380.616 618.94 380.343 619.753 380.343 620.82V626H377.843V615.32H380.223V616.88ZM392.955 625.42C392.661 625.66 392.301 625.84 391.875 625.96C391.461 626.08 391.021 626.14 390.555 626.14C389.381 626.14 388.475 625.833 387.835 625.22C387.195 624.607 386.875 623.713 386.875 622.54V617.4H385.115V615.4H386.875V612.96H389.375V615.4H392.235V617.4H389.375V622.48C389.375 623 389.501 623.4 389.755 623.68C390.008 623.947 390.375 624.08 390.855 624.08C391.415 624.08 391.881 623.933 392.255 623.64L392.955 625.42ZM413.218 612V626H411.078L403.358 616.52V626H400.778V612H402.918L410.638 621.48V612H413.218ZM421.53 626.14C420.45 626.14 419.477 625.907 418.61 625.44C417.743 624.973 417.063 624.327 416.57 623.5C416.09 622.66 415.85 621.713 415.85 620.66C415.85 619.607 416.09 618.667 416.57 617.84C417.063 617.013 417.743 616.367 418.61 615.9C419.477 615.433 420.45 615.2 421.53 615.2C422.623 615.2 423.603 615.433 424.47 615.9C425.337 616.367 426.01 617.013 426.49 617.84C426.983 618.667 427.23 619.607 427.23 620.66C427.23 621.713 426.983 622.66 426.49 623.5C426.01 624.327 425.337 624.973 424.47 625.44C423.603 625.907 422.623 626.14 421.53 626.14ZM421.53 624C422.45 624 423.21 623.693 423.81 623.08C424.41 622.467 424.71 621.66 424.71 620.66C424.71 619.66 424.41 618.853 423.81 618.24C423.21 617.627 422.45 617.32 421.53 617.32C420.61 617.32 419.85 617.627 419.25 618.24C418.663 618.853 418.37 619.66 418.37 620.66C418.37 621.66 418.663 622.467 419.25 623.08C419.85 623.693 420.61 624 421.53 624ZM445.988 615.32L442.048 626H439.648L436.888 618.64L434.088 626H431.688L427.768 615.32H430.128L432.948 623.2L435.888 615.32H437.988L440.868 623.24L443.768 615.32H445.988Z" fill="white"/>
</g>
<defs>
<filter id="filter0_d_1_12138" x="96" y="86" width="408" height="48" filterUnits="userSpaceOnUse" color-interpolation-filters="sRGB">
<feFlood flood-opacity="0" result="BackgroundImageFix"/>
<feColorMatrix in="SourceAlpha" type="matrix" values="0 0 0 0 0 0 0 0 0 0 0 0 0 0 0 0 0 0 127 0" result="hardAlpha"/>
<feOffset/>
<feGaussianBlur stdDeviation="2"/>
<feComposite in2="hardAlpha" operator="out"/>
<feColorMatrix type="matrix" values="0 0 0 0 0.509804 0 0 0 0 0.976471 0 0 0 0 1 0 0 0 1 0"/>
<feBlend mode="normal" in2="BackgroundImageFix" result="effect1_dropShadow_1_12138"/>
<feBlend mode="normal" in="SourceGraphic" in2="effect1_dropShadow_1_12138" result="shape"/>
</filter>
<filter id="filter1_d_1_12138" x="95" y="586" width="191" height="66" filterUnits="userSpaceOnUse" color-interpolation-filters="sRGB">
<feFlood flood-opacity="0" result="BackgroundImageFix"/>
<feColorMatrix in="SourceAlpha" type="matrix" values="0 0 0 0 0 0 0 0 0 0 0 0 0 0 0 0 0 0 127 0" result="hardAlpha"/>
<feOffset/>
<feGaussianBlur stdDeviation="2.5"/>
<feComposite in2="hardAlpha" operator="out"/>
<feColorMatrix type="matrix" values="0 0 0 0 0.243137 0 0 0 0 0.835294 0 0 0 0 0.866667 0 0 0 1 0"/>
<feBlend mode="normal" in2="BackgroundImageFix" result="effect1_dropShadow_1_12138"/>
<feBlend mode="normal" in="SourceGraphic" in2="effect1_dropShadow_1_12138" result="shape"/>
</filter>
<filter id="filter2_d_1_12138" x="306" y="586" width="178" height="66" filterUnits="userSpaceOnUse" color-interpolation-filters="sRGB">
<feFlood flood-opacity="0" result="BackgroundImageFix"/>
<feColorMatrix in="SourceAlpha" type="matrix" values="0 0 0 0 0 0 0 0 0 0 0 0 0 0 0 0 0 0 127 0" result="hardAlpha"/>
<feOffset/>
<feGaussianBlur stdDeviation="2.5"/>
<feComposite in2="hardAlpha" operator="out"/>
<feColorMatrix type="matrix" values="0 0 0 0 0.509804 0 0 0 0 0.976471 0 0 0 0 1 0 0 0 1 0"/>
<feBlend mode="normal" in2="BackgroundImageFix" result="effect1_dropShadow_1_12138"/>
<feBlend mode="normal" in="SourceGraphic" in2="effect1_dropShadow_1_12138" result="shape"/>
</filter>
<linearGradient id="paint0_linear_1_12138" x1="300" y1="90" x2="300" y2="110" gradientUnits="userSpaceOnUse">
<stop stop-color="#82F9FF"/>
<stop offset="1" stop-color="#101422" stop-opacity="0"/>
</linearGradient>
<linearGradient id="paint1_linear_1_12138" x1="189.971" y1="591" x2="189.971" y2="619" gradientUnits="userSpaceOnUse">
<stop stop-color="#82F9FF"/>
<stop offset="1" stop-color="#101422" stop-opacity="0"/>
</linearGradient>
<linearGradient id="paint2_linear_1_12138" x1="395" y1="591" x2="395" y2="619" gradientUnits="userSpaceOnUse">
<stop stop-color="#82F9FF"/>
<stop offset="1" stop-color="#101422" stop-opacity="0"/>
</linearGradient>
</defs>
</svg>
